<svg width="92" height="30" viewBox="0 0 92 30" fill="none" xmlns="http://www.w3.org/2000/svg">
<path d="M39.0006 15.7876C39.0006 20.1038 35.6241 23.2842 31.4804 23.2842C27.3366 23.2842 23.9601 20.1038 23.9601 15.7876C23.9601 11.4411 27.3366 8.29102 31.4804 8.29102C35.6241 8.29102 39.0006 11.4411 39.0006 15.7876ZM35.7086 15.7876C35.7086 13.0905 33.7517 11.245 31.4804 11.245C29.2091 11.245 27.2521 13.0905 27.2521 15.7876C27.2521 18.4578 29.2091 20.3302 31.4804 20.3302C33.7517 20.3302 35.7086 18.4544 35.7086 15.7876Z" fill="#EA4335"/>
<path d="M55.2241 15.7876C55.2241 20.1038 51.8476 23.2842 47.7039 23.2842C43.5601 23.2842 40.1836 20.1038 40.1836 15.7876C40.1836 11.4445 43.5601 8.29102 47.7039 8.29102C51.8476 8.29102 55.2241 11.4411 55.2241 15.7876ZM51.9321 15.7876C51.9321 13.0905 49.9752 11.245 47.7039 11.245C45.4326 11.245 43.4756 13.0905 43.4756 15.7876C43.4756 18.4578 45.4326 20.3302 47.7039 20.3302C49.9752 20.3302 51.9321 18.4544 51.9321 15.7876Z" fill="#FBBC05"/>
<path d="M70.7718 8.74392V22.2027C70.7718 27.739 67.5069 30.0001 63.647 30.0001C60.0136 30.0001 57.8268 27.57 57.0021 25.5826L59.8683 24.3895C60.3787 25.6096 61.6292 27.0495 63.6436 27.0495C66.1143 27.0495 67.6454 25.5251 67.6454 22.6556V21.5774H67.5305C66.7937 22.4866 65.3741 23.2809 63.5828 23.2809C59.8345 23.2809 56.4005 20.0159 56.4005 15.8147C56.4005 11.583 59.8345 8.29102 63.5828 8.29102C65.3708 8.29102 66.7903 9.08529 67.5305 9.96745H67.6454V8.7473H70.7718V8.74392ZM67.8787 15.8147C67.8787 13.175 66.1177 11.245 63.8769 11.245C61.6056 11.245 59.7027 13.175 59.7027 15.8147C59.7027 18.4273 61.6056 20.3302 63.8769 20.3302C66.1177 20.3302 67.8787 18.4273 67.8787 15.8147Z" fill="#4285F4"/>
<path d="M75.9261 0.85498V22.8243H72.7152V0.85498H75.9261Z" fill="#34A853"/>
<path d="M88.4386 18.2547L90.9938 19.9581C90.1691 21.1783 88.1817 23.2806 84.7478 23.2806C80.4891 23.2806 77.3086 19.9886 77.3086 15.784C77.3086 11.3259 80.5161 8.28735 84.3793 8.28735C88.2696 8.28735 90.1725 11.3833 90.7944 13.0564L91.1358 13.9081L81.1144 18.0586C81.8816 19.5627 83.0747 20.3299 84.7478 20.3299C86.4242 20.3299 87.5869 19.5052 88.4386 18.2547ZM80.5736 15.5575L87.2725 12.7759C86.9041 11.8396 85.7955 11.1873 84.4909 11.1873C82.8178 11.1873 80.4891 12.6643 80.5736 15.5575Z" fill="#EA4335"/>
<path d="M11.806 13.8373V10.6568H22.5237C22.6284 11.2111 22.6825 11.8668 22.6825 12.5766C22.6825 14.9628 22.0302 17.9135 19.9279 20.0158C17.883 22.1451 15.2704 23.2807 11.8094 23.2807C5.39432 23.2807 0 18.0554 0 11.6404C0 5.22532 5.39432 0 11.8094 0C15.3583 0 17.8864 1.39252 19.7859 3.20752L17.5417 5.45178C16.1796 4.17418 14.3342 3.18049 11.806 3.18049C7.12145 3.18049 3.45764 6.95583 3.45764 11.6404C3.45764 16.3249 7.12145 20.1003 11.806 20.1003C14.8445 20.1003 16.575 18.8801 17.6836 17.7715C18.5827 16.8725 19.1742 15.5881 19.4074 13.8339L11.806 13.8373Z" fill="#4285F4"/>
</svg>
