<svg width="104" height="30" viewBox="0 0 104 30" fill="none" xmlns="http://www.w3.org/2000/svg">
<path d="M99.029 26.1226C101.067 26.1226 102.51 25.7546 103.586 24.9622V21.3678C102.482 22.132 101.152 22.6131 99.2837 22.6131C96.1422 22.6131 94.8403 20.1791 94.8403 16.33C94.8403 12.2828 96.4252 10.2168 99.312 10.2168C101.01 10.2168 102.68 10.8111 103.557 11.3772V7.64128C102.623 7.13184 101.01 6.76392 98.8026 6.76392C93.1705 6.76392 90.2554 10.8111 90.2554 16.4715C90.2837 22.6697 93.1422 26.1226 99.029 26.1226ZM71.4911 24.481V20.8867C70.1326 21.8206 67.8118 22.6414 65.6891 22.6414C62.4627 22.6414 61.2457 21.1131 61.0476 17.9999H71.6892V15.6791C71.6892 9.1979 68.8307 6.76392 64.4438 6.76392C59.0664 6.76392 56.5193 10.8677 56.5193 16.4998C56.5193 22.981 59.7174 26.1226 65.3212 26.1226C68.1231 26.1226 70.1892 25.3584 71.4911 24.481ZM31.104 7.10354V14.4621H25.2171V7.10354H20.802V25.7546H25.2171V17.9715H31.104V25.7546H35.5191V7.10354H31.104ZM55.4155 22.2452H53.4626V7.10354H40.6135V8.68846C40.6135 13.2451 40.3305 19.1319 38.7738 22.2452H37.3587V29.9999H41.4342V25.7546H51.3117V29.9999H55.3872V22.2452H55.4155ZM85.5572 25.7546H90.5667L83.4912 15.7074L89.7176 7.10354H85.2742L79.0477 15.7074V7.10354H74.6326V25.7546H79.0477V16.5847L85.5572 25.7546ZM64.3306 10.2168C66.5099 10.2168 67.1892 12.0281 67.1892 14.3772V14.7451H61.0476C61.1608 11.7734 62.2363 10.2168 64.3306 10.2168ZM49.0475 22.2452H42.821C44.038 19.4433 44.3777 14.3489 44.3777 11.1224V10.5564H49.0475V22.2452Z" fill="black"/>
<path d="M17.1228 25.7549H12.6227V3.48116H10.6133C6.93402 3.48116 5.00947 5.3208 5.00947 8.0661C5.00947 11.1793 6.33967 12.6227 9.08497 14.4624L11.3491 15.9907L4.83966 25.7549H0L5.85854 17.0379C2.49059 14.6322 0.594344 12.2831 0.594344 8.32082C0.594344 3.36795 4.0472 0 10.585 0H17.0945L17.1228 25.7549Z" fill="#FC3F1D"/>
</svg>
