<svg width="21" height="20" viewBox="0 0 21 20" fill="none" xmlns="http://www.w3.org/2000/svg">
<path d="M18.1684 1.05263V0H16.9053V1.05263H13.3965V0H12.1333V1.05263H8.62455V0H7.36139V1.05263H3.85263V0H2.58947V1.05263H0V17.4737H19.3684V18.7368H0V20H20.6316V1.05263H18.1684ZM2.58947 2.31579V3.36842H3.85263V2.31579H7.36139V3.36842H8.62455V2.31579H12.1333V3.36842H13.3965V2.31579H16.9053V3.36842H18.1684V2.31579H19.3684V4.42105H1.26316V2.31579H2.58947ZM1.26316 16.2105V5.68421H19.3684V16.2105H1.26316Z" fill="white"/>
<path d="M2.94737 14.5263H17.6842V7.36842H2.94737V14.5263ZM4.21053 11.5789H7.36139V13.2632H4.21053V11.5789ZM12.1333 11.5789V13.2632H8.62455V11.5789H12.1333ZM8.62455 10.3158V8.63158H12.1333V10.3158H8.62455ZM13.3965 13.2632V11.5789H16.4211V13.2632H13.3965ZM16.4211 10.3158H13.3965V8.63158H16.4211V10.3158ZM7.36139 8.63158V10.3158H4.21053V8.63158H7.36139Z" fill="white"/>
</svg>
