<svg width="21" height="20" viewBox="0 0 21 20" fill="none" xmlns="http://www.w3.org/2000/svg">
<path d="M19.7884 15.1679C19.0438 13.7603 16.4581 12.234 16.3443 12.1672C16.012 11.9781 15.6653 11.878 15.3408 11.878C14.8584 11.878 14.4635 12.099 14.2243 12.501C13.8461 12.9534 13.377 13.4822 13.2631 13.5641C12.3821 14.1619 11.6924 14.094 10.9292 13.3309L6.67003 9.07129C5.91171 8.31297 5.84199 7.61472 6.43567 6.73848C6.51873 6.6239 7.04752 6.15445 7.49992 5.77584C7.78841 5.60415 7.98643 5.34903 8.0732 5.03606C8.18852 4.61964 8.10361 4.12979 7.83143 3.65255C7.76727 3.54278 6.24025 0.956707 4.83337 0.212478C4.57083 0.0734217 4.27492 0 3.97827 0C3.48953 0 3.02972 0.1906 2.68412 0.53583L1.74299 1.47659C0.254527 2.96468 -0.28427 4.65153 0.140686 6.49003C0.495187 8.02225 1.52828 9.65273 3.21179 11.3359L8.66465 16.7887C10.7954 18.9194 12.8267 20 14.7023 20C16.0817 20 17.3681 19.4137 18.5239 18.2579L19.4647 17.3171C20.0365 16.7457 20.1663 15.8817 19.7884 15.1679Z" fill="#A02842"/>
</svg>
