<svg width="50" height="50" viewBox="0 0 50 50" fill="none" xmlns="http://www.w3.org/2000/svg">
<mask id="mask0_308_3198" style="mask-type:alpha" maskUnits="userSpaceOnUse" x="0" y="0" width="50" height="50">
<rect width="50" height="50" rx="25" fill="white"/>
</mask>
<g mask="url(#mask0_308_3198)">
<rect width="50" height="50" rx="25" fill="white"/>
<path d="M33.3547 39.4305C33.3314 39.7309 33.3063 40.0331 33.2794 40.337C32.3546 40.3899 31.4374 40.4654 30.529 40.5639C30.32 40.5864 30.1119 40.6098 29.9047 40.6349C26.5061 41.0393 23.2248 41.7521 20.1006 42.7414C19.2494 43.0096 18.41 43.2991 17.5832 43.6085C17.549 43.3118 17.516 43.0131 17.4837 42.7154C17.2755 40.8018 17.1035 38.8809 17.0344 37.0908C17.0209 36.7609 17.0112 36.4361 17.0056 36.116C16.9608 33.484 17.178 31.2062 17.8862 29.7535C18.7059 28.0739 21.3703 26.6301 22.102 24.911C22.7165 23.4682 21.8814 20.6523 21.8779 19.0837C21.8732 17.2516 22.8706 14.5892 23.0715 12.7112C23.0777 12.6511 23.0838 12.592 23.0885 12.5338C23.2409 10.6523 23.0885 5 23.0885 5H27.4387C27.4387 5 27.2854 10.6523 27.4387 12.5338C27.4432 12.592 27.4494 12.6511 27.4557 12.7112C27.6557 14.5892 28.6538 17.2516 28.6493 19.0837C28.6457 20.6523 27.8108 23.4682 28.4252 24.911C29.157 26.6301 31.8212 28.0739 32.64 29.7535C33.0086 30.5084 33.2434 31.4852 33.379 32.6196C33.4165 32.9343 33.4462 33.2625 33.4686 33.6006C33.5851 35.3278 33.5161 37.3339 33.3547 39.4305Z" fill="#E84207"/>
<path d="M27.4556 12.7112H23.0714C23.0776 12.6511 23.0837 12.592 23.0884 12.5338C23.2408 10.6523 23.0884 5 23.0884 5H27.4386C27.4386 5 27.2853 10.6523 27.4386 12.5338C27.4431 12.592 27.4494 12.6511 27.4556 12.7112Z" fill="#0F0B09"/>
<path d="M33.3548 39.4306C33.3314 39.731 33.3064 40.0331 33.2794 40.3371C32.3546 40.39 31.4374 40.4655 30.5291 40.564C30.32 40.5864 30.112 40.6099 29.9048 40.635C26.5061 41.0393 23.2249 41.7522 20.1006 42.7414C19.2494 43.0096 18.41 43.2991 17.5833 43.6085C17.549 43.3119 17.516 43.0132 17.4838 42.7154C17.2756 40.8018 17.1036 38.881 17.0345 37.0908C17.0209 36.761 17.0112 36.4362 17.0057 36.116C21.173 34.501 25.6668 33.3882 30.3801 32.869C31.3702 32.7586 32.37 32.6761 33.379 32.6196C33.4166 32.9343 33.4463 33.2626 33.4687 33.6007C33.5851 35.3278 33.5162 37.3339 33.3548 39.4306Z" fill="#E5B800"/>
<path d="M33.3547 39.4305C33.3314 39.7309 33.3063 40.033 33.2794 40.337C32.3546 40.3899 31.4374 40.4654 30.529 40.5639C30.32 40.5863 30.1119 40.6098 29.9048 40.6349C26.5061 41.0393 23.2248 41.7521 20.1006 42.7414C19.2494 43.0095 18.41 43.2991 17.5832 43.6085C17.549 43.3118 17.516 43.0131 17.4838 42.7154C17.2755 40.8017 17.1035 38.8809 17.0344 37.0907C21.2008 35.4794 25.6946 34.3682 30.407 33.8509C31.4176 33.7396 32.4391 33.6562 33.4687 33.6006C33.5851 35.3278 33.5161 37.3339 33.3547 39.4305Z" fill="#0B3568"/>
<path d="M31.8328 54.6863C31.8605 57.2734 34.7796 64.9999 32.1916 64.9999H18.3346C17.7841 64.9999 17.4826 64.6503 17.35 64.0753C16.8578 61.9457 18.6719 56.7227 18.6943 54.6863C18.7203 52.2344 18.0836 47.9936 17.5832 43.6084C18.41 43.299 19.2493 43.0094 20.1005 42.7413L20.7784 57.1048H29.7478L30.529 40.5638C31.4373 40.4653 32.3546 40.3898 33.2794 40.3369C32.8014 45.7741 31.7997 51.6248 31.8328 54.6863Z" fill="#E84207"/>
<path d="M33.3549 39.4307C33.3315 39.7311 33.3065 40.0332 33.2795 40.3372C32.3547 40.3901 31.4375 40.4655 30.5292 40.5641C30.3201 40.5865 30.1121 40.61 29.9049 40.635C26.5062 41.0394 23.225 41.7523 20.1007 42.7415C19.2495 43.0097 18.4101 43.2992 17.5834 43.6086C17.5491 43.3119 17.5161 43.0133 17.4839 42.7155C18.3286 42.3999 19.1867 42.1039 20.0575 41.8304C23.2284 40.8295 26.5618 40.1132 30.0152 39.7141C30.2008 39.6925 30.3866 39.6718 30.5721 39.652C31.4912 39.5552 32.4195 39.4817 33.3549 39.4307Z" fill="#E5B800"/>
<path d="M30.529 40.564L29.7478 57.105H20.7784L20.1005 42.7414C23.4158 41.6921 26.9079 40.9532 30.529 40.564Z" fill="#FFFFE8"/>
<path d="M33.3548 39.4305C33.3314 39.7309 33.3064 40.0331 33.2794 40.337C32.8015 45.7743 31.7997 51.6249 31.8329 54.6864C31.8606 57.2735 34.7797 65 32.1916 65H18.3347C17.7842 65 17.4827 64.6504 17.3501 64.0755C20.1749 64.2226 27.0817 64.48 28.4296 63.5573C29.8869 62.56 29.6375 59.8122 29.1983 57.105C28.8898 55.2019 28.4881 53.3197 28.5193 52.0786C28.5902 49.3057 29.3695 44.9347 29.9048 40.6349C29.9434 40.3272 29.9801 40.0206 30.0151 39.714C30.2547 37.6531 30.4206 35.6364 30.407 33.8509C30.4053 33.5145 30.3963 33.1871 30.3801 32.8689C30.3272 31.7954 30.1944 30.8297 29.9541 30.018C29.4368 28.2693 25.9572 24.3046 25.9572 24.3046C25.9572 24.3046 26.6783 21.2199 26.5463 17.553C26.5007 16.2823 26.377 14.5461 26.2246 12.7112C25.9931 9.9448 25.6946 6.9541 25.492 5H27.4388C27.4388 5 27.2854 10.6523 27.4388 12.5338C27.4433 12.592 27.4495 12.6511 27.4557 12.7112C27.6557 14.5892 28.6539 17.2516 28.6494 19.0837C28.6458 20.6523 27.8109 23.4682 28.4252 24.911C29.157 26.6301 31.8212 28.0739 32.64 29.7536C33.0086 30.5085 33.2435 31.4852 33.379 32.6196C33.4166 32.9343 33.4463 33.2625 33.4687 33.6006C33.5851 35.3278 33.5162 37.3339 33.3548 39.4305Z" fill="#020202" fill-opacity="0.321569"/>
<path d="M20.3879 48.8342C20.3879 48.8342 17.6686 34.949 19.6412 30.9146C20.4716 29.2165 22.9699 26.4254 24.8424 26.6832C27.0656 26.9889 24.1134 32.7046 22.8696 36.0262C21.2554 40.3368 20.3879 48.8342 20.3879 48.8342Z" fill="white" fill-opacity="0.478431"/>
<path d="M24.7527 19.3015C24.7527 20.6635 24.3764 21.7676 23.9121 21.7676C23.4478 21.7676 23.0714 20.6635 23.0714 19.3015C23.0714 17.9396 23.4478 16.8354 23.9121 16.8354C24.3764 16.8354 24.7527 17.9396 24.7527 19.3015Z" fill="white" fill-opacity="0.478431"/>
<path d="M25.2632 5V12.7112H23.0714C23.0776 12.6511 23.0837 12.592 23.0884 12.5338C23.2408 10.6523 23.0884 5 23.0884 5H25.2632Z" fill="white" fill-opacity="0.478431"/>
</g>
</svg>
