<svg width="160" height="169" viewBox="0 0 160 169" fill="none" xmlns="http://www.w3.org/2000/svg">
<mask id="mask0_354_4080" style="mask-type:alpha" maskUnits="userSpaceOnUse" x="0" y="0" width="160" height="169">
<path d="M160 0H0V105.424H0.0061218C0.541698 140.61 36.151 169 80 169C123.849 169 159.458 140.61 159.994 105.424H160V0Z" fill="#D9D9D9"/>
</mask>
<g mask="url(#mask0_354_4080)">
<circle cx="80" cy="89" r="80" fill="#FFEDF0"/>
<path d="M90.0861 49.228L88.7705 11.1824C88.7705 11.7249 84.9379 12.1631 80.2115 12.1631C75.4835 12.1631 71.6534 11.7249 71.6534 11.1824L70.3378 49.228H70.3591L70.1416 56.1842C69.8109 66.7088 65.8667 76.6195 59.2199 83.6249L51.8098 91.4354C46.9817 96.5229 44.4868 104.023 45.0884 111.639L49.8106 171.457H49.8205C49.9149 175.628 63.5589 179 80.3863 179C97.2737 179 110.96 175.605 110.96 171.414L110.883 171.034L115.567 111.708C116.171 104.054 113.647 96.518 108.776 91.4305L101.313 83.638C94.5999 76.6277 90.6122 66.6653 90.2806 56.0792L90.0664 49.228H90.0861Z" fill="#C01A00"/>
<path d="M105.99 94.3973L99.2582 87.3689C93.2015 81.043 67.2824 81.0381 61.2872 87.3558L54.6027 94.4022C50.2481 98.9907 47.9969 105.756 48.5394 112.627L52.7988 166.585H52.8087C52.8932 170.349 65.2011 173.39 80.3806 173.39C95.6135 173.39 107.961 170.329 107.961 166.548L107.892 166.205L112.116 112.689C112.661 105.785 110.385 98.9882 105.99 94.3973Z" fill="#E84207"/>
<path d="M50.3843 100.928C50.3416 100.768 50.3105 100.6 50.2949 100.424C50.2153 99.5537 50.5304 98.7026 50.8693 97.923C52.052 95.204 53.6178 92.719 55.4849 90.6024C55.4849 90.6024 56.3877 88.7616 58.4747 87.8038C58.9121 88.4505 58.9802 89.1637 58.8563 89.9171L58.8522 89.922C57.9248 90.8191 56.995 91.7021 56.107 92.5991C55.6294 93.0825 55.1419 93.6307 54.7594 94.2364L54.6027 94.4022C52.8349 96.266 51.4135 98.4868 50.3843 100.928Z" fill="#C01A00"/>
<path d="M81.9513 109.839C77.0362 109.839 72.0915 109.353 67.2527 108.589C62.1267 107.782 56.9046 106.627 52.468 103.488C51.5915 102.867 50.6838 102.044 50.3842 100.928C51.4134 98.4868 52.8348 96.266 54.6026 94.4022L54.7593 94.2364C54.2521 95.0391 53.9312 95.9344 54.0585 96.9045C54.2661 98.4761 55.6457 99.3748 57.0195 99.3748C57.3954 99.3748 57.7704 99.3091 58.1201 99.1696C58.5936 99.9328 59.2058 100.588 59.8887 101.063C61.5875 102.248 63.6203 102.523 65.6007 102.523C65.7377 102.523 65.8731 102.523 66.0094 102.52C72.9935 102.395 79.9259 99.6251 85.5427 94.7149C86.8837 93.5413 88.1828 92.1707 89.2317 90.6204C91.9605 95.497 93.9408 101.025 95.1784 106.692C95.3015 107.259 95.4197 107.827 95.5305 108.397C91.0947 109.416 86.5357 109.839 81.9513 109.839ZM58.8521 89.922L58.8562 89.9171V89.9204C58.8546 89.9204 58.8538 89.9204 58.8521 89.922Z" fill="#FF7439"/>
<path d="M64.2523 172.099C62.4993 171.849 60.7537 171.48 59.0344 171.044C57.3437 170.619 55.3864 170.003 54.1217 168.64C55.9379 170.046 59.5342 171.253 64.2523 172.099ZM49.3806 123.285C48.6863 115.558 48.2332 110.114 48.4458 110.114C48.4515 110.114 48.4573 110.116 48.4638 110.124C48.4483 110.954 48.4729 111.789 48.5394 112.627L49.3806 123.285Z" fill="#9A3754"/>
<path d="M68.8048 172.439C67.2882 172.439 65.7666 172.315 64.2524 172.099C59.5343 171.253 55.938 170.046 54.1218 168.64C53.7976 168.292 53.5178 167.892 53.3003 167.434C52.6897 166.147 52.8374 164.522 52.7447 163.051C52.0413 151.905 50.432 134.983 49.3806 123.285L48.5394 112.627C48.473 111.789 48.4483 110.954 48.4639 110.124C48.4639 110.124 48.4648 110.124 48.4648 110.127C50.2818 112.37 51.5071 134.726 53.1222 146.936C53.9412 153.117 54.2687 162.035 58.2679 166.129C60.3426 168.254 61.3603 168.105 63.9463 169.185C66.067 170.071 71.0404 171.174 73.161 172.061C71.7191 172.325 70.264 172.439 68.8048 172.439Z" fill="#FF7439"/>
<path d="M77.0388 175.626C73.7289 175.626 70.8064 175.405 68.6997 174.89C69.6263 174.518 71.2184 173.904 73.1159 173.151C75.431 173.308 77.866 173.39 80.3806 173.39C95.6135 173.39 107.961 170.329 107.961 166.548L107.892 166.205L112.116 112.689C112.447 108.497 111.738 104.347 110.147 100.704C110.059 100.002 109.704 99.3042 109.344 98.7059C103.6 89.1736 93.8506 82.782 90.8083 71.6592C91.039 71.6001 91.2663 71.5394 91.4912 71.4786C92.6656 75.1324 94.1986 78.5932 96.2225 81.743C101.092 89.3287 109.107 93.0497 112.196 101.848C115.14 110.236 112.876 121.403 111.659 130.369C110.495 138.93 109.842 147.589 109.708 156.259C109.657 159.593 109.653 167.665 108.011 170.375C106.641 172.638 89.2154 175.626 77.0388 175.626ZM91.5978 83.8054C89.162 83.2351 86.4045 82.8715 83.5592 82.7131C82.2641 81.313 80.8722 80.0368 79.3843 78.9067C77.8299 77.7249 76.0039 75.2596 77.3982 73.8291C77.7897 73.4261 78.3305 73.3063 78.8443 73.2374C80.8566 72.9624 82.9584 73.1766 84.9067 72.6547C86.9979 72.4536 88.9626 72.1204 90.746 71.674C89.8178 75.5961 91.7423 79.7266 91.5978 83.8054Z" fill="#B61000"/>
<path d="M80.3807 173.39C77.8661 173.39 75.4311 173.308 73.1159 173.151C94.5114 160.716 100.285 141.674 95.5307 108.397C100.015 107.369 104.372 105.733 108.495 103.312C109.136 102.935 109.823 102.472 110.071 101.677C110.171 101.357 110.188 101.03 110.147 100.704C111.739 104.347 112.447 108.497 112.117 112.689L107.892 166.205L107.96 166.548C107.96 170.329 95.6135 173.39 80.3807 173.39ZM89.2318 90.6204C87.6069 87.7168 85.7168 85.043 83.5592 82.7131C86.4046 82.8715 89.1621 83.235 91.5979 83.8054C91.593 83.9252 91.5872 84.0426 91.5798 84.1624C91.4206 86.5638 90.5129 88.7288 89.2318 90.6204Z" fill="#B61000"/>
<path d="M84.9067 72.6547C85.3679 72.5291 85.8209 72.3674 86.2616 72.1426C87.8127 71.3605 89.0594 69.4006 89.1907 67.536C89.5707 67.4597 89.9449 67.3752 90.3118 67.289C90.6589 68.7104 91.0504 70.1081 91.4911 71.4786C91.2662 71.5394 91.0389 71.6001 90.8083 71.6592C90.7976 71.6206 90.7878 71.5829 90.7771 71.5443C90.7664 71.587 90.7566 71.6305 90.7459 71.674C88.9625 72.1204 86.9978 72.4536 84.9067 72.6547Z" fill="#B61000"/>
<path d="M110.147 100.704C109.117 98.3465 107.717 96.2028 105.99 94.3973L99.2582 87.3689C97.7416 85.7849 94.9791 84.5982 91.5979 83.8054C91.7423 79.7266 89.8178 75.596 90.746 71.674C90.7665 71.669 90.7879 71.6641 90.8084 71.6592C93.8507 82.782 103.601 89.1736 109.344 98.7059C109.704 99.3042 110.059 100.002 110.147 100.704Z" fill="#B61000"/>
<path d="M95.5306 108.397C95.4198 107.827 95.3016 107.259 95.1785 106.692C93.9409 101.025 91.9606 95.497 89.2318 90.6205C90.5129 88.7288 91.4205 86.5638 91.5798 84.1624C91.5871 84.0426 91.5937 83.9252 91.5978 83.8054C94.9791 84.5982 97.7415 85.7849 99.2581 87.3689L105.989 94.3973C107.717 96.2028 109.117 98.3465 110.147 100.704C110.188 101.03 110.171 101.356 110.071 101.677C109.823 102.472 109.136 102.935 108.495 103.312C104.372 105.733 100.015 107.368 95.5306 108.397Z" fill="#D42E00"/>
<path d="M90.7459 71.6739C90.7566 71.6304 90.7664 71.5869 90.7771 71.5443C90.7878 71.5828 90.7976 71.6206 90.8083 71.6591C90.7878 71.6641 90.7664 71.669 90.7459 71.6739Z" fill="#9B572B"/>
<path d="M62.0726 86.6499C64.3944 84.0779 66.3337 81.2211 67.0616 77.6076L67.2274 77.18C67.2758 75.9342 67.7805 74.722 68.5848 73.9177C69.0058 74.6276 68.7564 75.5977 68.4937 76.4061C67.5885 79.194 66.6808 81.9851 65.7116 84.7435C64.2581 85.2777 63.0189 85.9121 62.0726 86.6499Z" fill="#FF7439"/>
<path d="M58.1201 99.1696C57.3347 97.9008 56.9317 96.3374 57.2296 94.8224C57.5522 93.1744 58.6035 91.4608 58.8562 89.9204C59.9551 88.8584 61.0499 87.7809 62.0725 86.6499C63.0188 85.9121 64.258 85.2777 65.7115 84.7435C64.5609 88.0205 63.3233 91.254 61.8994 94.3792C61.045 96.2561 60.02 98.2045 58.3696 99.0563C58.2883 99.0974 58.2046 99.136 58.1201 99.1696Z" fill="#FF7439"/>
<path d="M54.7593 94.2364C55.1418 93.6308 55.6293 93.0825 56.1069 92.5992C56.9949 91.7021 57.9247 90.8191 58.8521 89.9221L54.7593 94.2364Z" fill="#9A3754"/>
<path d="M57.0196 99.3748C55.6457 99.3748 54.2662 98.4761 54.0585 96.9045C53.9313 95.9344 54.2522 95.0391 54.7594 94.2364L58.8522 89.9221C58.8538 89.9204 58.8547 89.9204 58.8563 89.9204C58.6035 91.4608 57.5522 93.1745 57.2297 94.8224C56.9318 96.3374 57.3347 97.9008 58.1201 99.1696C57.7705 99.3091 57.3955 99.3748 57.0196 99.3748Z" fill="#FF7439"/>
<path d="M90.0861 49.228L88.7705 11.1824C88.7705 11.7249 84.9379 12.1631 80.2115 12.1631C75.4843 12.1631 71.6533 11.7249 71.6533 11.1824C71.2151 23.8645 70.776 36.5459 70.3378 49.228C76.7646 50.7873 83.3269 50.995 90.0861 49.228Z" fill="#F9BA06"/>
<path d="M88.9379 16.0335L88.7705 11.1824C88.7705 11.7249 84.9379 12.1631 80.2115 12.1631C75.4843 12.1631 71.6533 11.7249 71.6533 11.1824L71.4875 15.9596C72.7859 16.3757 76.2599 16.6728 80.3428 16.6728C84.1787 16.6728 87.4771 16.4102 88.9379 16.0335Z" fill="#C78800"/>
<path d="M80.3429 1.15188C75.152 1.15188 70.9435 0.670136 70.9435 0.0751343V13.7544C70.9435 14.3478 75.152 14.8287 80.3429 14.8287C85.5329 14.8287 89.7406 14.3478 89.7406 13.7544V0.0751343C89.7406 0.670136 85.5329 1.15188 80.3429 1.15188Z" fill="#F9BA06"/>
<path d="M80.3429 -1C75.152 -1 70.9435 -0.518254 70.9435 0.075107C70.9435 0.670109 75.152 1.15186 80.3429 1.15186C85.5329 1.15186 89.7406 0.670109 89.7406 0.075107C89.7406 -0.518254 85.5329 -1 80.3429 -1V-1Z" fill="#FFD03B"/>
<path d="M72.9787 19.143C72.6275 25.4534 72.5749 35.4839 72.4239 44.7462C72.323 50.9473 72.0776 56.7209 71.4588 60.9409C72.7932 66.3788 74.2951 56.3393 74.7227 44.4056C75.3103 27.9909 74.3911 7.93649 72.9787 19.143Z" fill="#FBD66A"/>
<path d="M76.3239 13.3728C75.7133 13.3728 74.5217 13.2399 74.2361 13.212C72.1507 12.9928 71.9931 12.3716 71.9587 7.93573C71.9439 6.18355 71.5746 1.53351 72.5602 1.53351C72.6021 1.53351 72.6456 1.54172 72.6907 1.55895C74.3904 2.14739 76.74 2.00705 76.5234 3.90449C76.3026 5.84214 78.0737 12.9551 76.6342 13.3498C76.5734 13.3646 76.4643 13.3728 76.3239 13.3728Z" fill="#FBD66A"/>
<path d="M85.4926 50.1357C84.5291 54.2712 83.1758 58.2524 81.3153 61.9619C83.1372 64.1622 86.7491 62.7612 88.5054 65.0354C89.0577 65.751 89.2555 66.6316 89.1907 67.536C89.5707 67.4597 89.9449 67.3752 90.3117 67.289C88.9322 61.6541 88.2354 55.6828 87.7815 49.7557C87.0158 49.9067 86.2534 50.0331 85.4926 50.1357Z" fill="#B61000"/>
<path d="M89.949 45.2706L89.9022 43.9058C87.1086 44.3941 83.889 44.6723 80.4618 44.6723C76.8286 44.6723 73.4301 44.3596 70.5249 43.8163L70.4781 45.1803C73.394 45.7294 76.8097 46.0453 80.4618 46.0453C83.9087 46.0453 87.1447 45.763 89.949 45.2706Z" fill="#C78800"/>
<path d="M80.3272 104.818C89.1956 104.818 96.3849 99.5037 96.3849 92.9487C96.3849 86.3938 89.1956 81.0799 80.3272 81.0799C71.4588 81.0799 64.2695 86.3938 64.2695 92.9487C64.2695 99.5037 71.4588 104.818 80.3272 104.818Z" fill="#0F0B09"/>
<path d="M80.3273 102.617C87.5513 102.617 93.4075 98.2885 93.4075 92.9487C93.4075 87.6089 87.5513 83.2802 80.3273 83.2802C73.1033 83.2802 67.2471 87.6089 67.2471 92.9487C67.2471 98.2885 73.1033 102.617 80.3273 102.617Z" fill="#0F0B09"/>
<path fill-rule="evenodd" clip-rule="evenodd" d="M80.3273 83.281C82.3215 83.281 84.2108 83.6109 85.9014 84.2002C84.1345 90.2618 78.3773 95.5405 70.2434 99.1072C68.3722 97.4347 67.2471 95.2886 67.2471 92.9488C67.2471 87.6093 73.1035 83.281 80.3273 83.281Z" fill="#282828"/>
<path d="M80.3273 82.5621C84.0951 82.5621 87.5166 83.6996 90.0033 85.5371C92.5507 87.4198 94.1264 90.0394 94.1264 92.9488C94.1264 95.8581 92.5507 98.4778 90.0033 100.36C87.5166 102.198 84.0951 103.335 80.3273 103.335C76.5603 103.335 73.1388 102.198 70.6522 100.36C68.1047 98.4778 66.529 95.8581 66.529 92.9488C66.529 90.0394 68.1047 87.4198 70.6522 85.5371C73.1388 83.6996 76.5603 82.5621 80.3273 82.5621ZM89.1506 86.6877C86.9035 85.0266 83.7849 83.9991 80.3273 83.9991C76.8705 83.9991 73.7519 85.0266 71.5049 86.6877C69.3177 88.3036 67.9652 90.5187 67.9652 92.9488C67.9652 95.3788 69.3177 97.5939 71.5049 99.2098C73.7519 100.871 76.8705 101.898 80.3273 101.898C83.7849 101.898 86.9035 100.871 89.1506 99.2098C91.3369 97.5939 92.6902 95.3788 92.6902 92.9488C92.6902 90.5187 91.3369 88.3036 89.1506 86.6877Z" fill="#C78800"/>
<path fill-rule="evenodd" clip-rule="evenodd" d="M53.3626 116.816C71.6452 118.215 90.1337 118.28 108.856 116.816C109.601 116.758 110.263 117.428 110.214 118.174C109.309 131.899 108.404 145.624 107.5 159.349C107.45 160.093 106.883 160.622 106.142 160.707C89.5642 162.587 72.8754 162.57 56.0775 160.707C55.3364 160.624 54.7693 160.094 54.72 159.349C53.8156 145.624 52.9104 131.899 52.006 118.174C51.9568 117.428 52.6182 116.759 53.3626 116.816Z" fill="#FFEAB2"/>
<path fill-rule="evenodd" clip-rule="evenodd" d="M97.1958 117.533C101.073 117.359 104.96 117.121 108.856 116.816C109.601 116.758 110.263 117.428 110.214 118.174C109.309 131.899 108.404 145.624 107.5 159.349C107.45 160.093 106.883 160.622 106.142 160.707C99.4593 161.464 92.7583 161.914 86.0393 162.059C93.1416 151.276 97.3821 137.654 97.3821 122.842C97.3821 121.054 97.3173 119.284 97.1958 117.533Z" fill="#CDB880"/>
<path fill-rule="evenodd" clip-rule="evenodd" d="M58.8432 123.668L60.8892 154.704C67.6714 155.332 74.4561 155.65 81.2259 155.651C87.9162 155.652 94.6238 155.341 101.33 154.712L103.376 123.675C96.0403 124.124 88.654 124.345 81.2259 124.344C73.7199 124.344 66.2557 124.116 58.8432 123.668ZM103.581 156.889L105.939 121.113C89.4033 122.254 72.8163 122.231 56.2794 121.109L58.638 156.884C73.5919 158.402 88.6311 158.435 103.581 156.889Z" fill="#F9BA06"/>
</g>
</svg>
