<svg width="160" height="180" viewBox="0 0 160 180" fill="none" xmlns="http://www.w3.org/2000/svg">
<circle cx="80" cy="90" r="80" fill="#FFEDF0"/>
<path d="M104.064 103.292C103.994 104.193 103.919 105.099 103.838 106.011C101.064 106.17 98.312 106.396 95.587 106.692C94.96 106.759 94.3357 106.83 93.7142 106.905C83.5182 108.118 73.6744 110.256 64.3017 113.224C61.7481 114.029 59.2299 114.897 56.7496 115.825C56.6469 114.935 56.5479 114.039 56.4512 113.146C55.8265 107.405 55.3105 101.643 55.1032 96.2723C55.0626 95.2828 55.0336 94.3084 55.0168 93.3479C54.8824 85.4521 55.5341 78.6186 57.6587 74.2606C60.1176 69.2215 68.1109 64.8903 70.306 59.733C72.1494 55.4045 69.6443 46.9568 69.6336 42.2512C69.6197 36.7549 72.6117 28.7676 73.2145 23.1337C73.2332 22.9534 73.2515 22.776 73.2654 22.6013C73.7226 16.957 73.2654 0 73.2654 0H86.3161C86.3161 0 85.8562 16.957 86.3161 22.6013C86.3296 22.776 86.3483 22.9534 86.367 23.1337C86.967 28.7676 89.9614 36.7549 89.9479 42.2512C89.9372 46.9568 87.4325 55.4045 89.2755 59.733C91.471 64.8903 99.4635 69.2215 101.92 74.2606C103.026 76.5254 103.73 79.4557 104.137 82.8587C104.25 83.8029 104.339 84.7876 104.406 85.8018C104.755 90.9833 104.548 97.0016 104.064 103.292Z" fill="#E84207"/>
<path d="M86.367 23.1337H73.2144C73.2331 22.9534 73.2514 22.776 73.2653 22.6013C73.7225 16.957 73.2653 0 73.2653 0H86.3161C86.3161 0 85.8561 16.957 86.3161 22.6013C86.3296 22.776 86.3483 22.9534 86.367 23.1337Z" fill="#0F0B09"/>
<path d="M104.064 103.292C103.994 104.193 103.919 105.099 103.838 106.011C101.064 106.17 98.312 106.396 95.5869 106.692C94.9599 106.759 94.3356 106.83 93.7141 106.905C83.5182 108.118 73.6744 110.256 64.3016 113.224C61.748 114.029 59.2299 114.897 56.7495 115.826C56.6469 114.935 56.5478 114.039 56.4511 113.146C55.8265 107.405 55.3104 101.643 55.1031 96.2723C55.0625 95.2828 55.0335 94.3084 55.0168 93.3479C67.5188 88.503 81 85.1644 95.1401 83.6068C98.1103 83.2757 101.11 83.0283 104.137 82.8588C104.249 83.8029 104.339 84.7877 104.406 85.8018C104.755 90.9834 104.548 97.0016 104.064 103.292Z" fill="#E5B800"/>
<path d="M104.064 103.292C103.994 104.193 103.919 105.099 103.838 106.011C101.064 106.17 98.312 106.396 95.587 106.692C94.9599 106.759 94.3357 106.83 93.7142 106.905C83.5182 108.118 73.6744 110.256 64.3016 113.224C61.7481 114.029 59.2299 114.897 56.7496 115.825C56.6469 114.935 56.5478 114.039 56.4512 113.146C55.8265 107.405 55.3104 101.643 55.1031 96.2723C67.6024 91.4381 81.0836 88.1047 95.2209 86.5526C98.2527 86.2188 101.317 85.9685 104.406 85.8018C104.755 90.9833 104.548 97.0016 104.064 103.292Z" fill="#0B3568"/>
<path d="M99.4985 149.059C99.5816 156.821 108.339 180 100.575 180H59.0039C57.3524 180 56.448 178.951 56.0501 177.226C54.5736 170.837 60.0157 155.169 60.083 149.059C60.161 141.704 58.2508 128.981 56.7496 115.825C59.2299 114.897 61.7481 114.029 64.3017 113.224L66.3352 156.315H93.2435L95.587 106.692C98.312 106.396 101.064 106.17 103.838 106.011C102.404 122.323 99.399 139.875 99.4985 149.059Z" fill="#E84207"/>
<path d="M104.064 103.292C103.994 104.193 103.919 105.099 103.838 106.011C101.064 106.17 98.312 106.396 95.587 106.692C94.9599 106.759 94.3357 106.83 93.7142 106.905C83.5182 108.118 73.6744 110.256 64.3017 113.224C61.7481 114.029 59.2299 114.897 56.7496 115.825C56.6469 114.935 56.5479 114.039 56.4512 113.146C58.9852 112.199 61.5595 111.311 64.1719 110.491C73.6847 107.488 83.6849 105.339 94.0452 104.142C94.6018 104.077 95.1593 104.015 95.7159 103.956C98.4732 103.665 101.258 103.445 104.064 103.292Z" fill="#E5B800"/>
<path d="M95.587 106.692L93.2435 156.315H66.3352L64.3016 113.224C74.2473 110.076 84.7238 107.86 95.587 106.692Z" fill="#FFFFE8"/>
<path d="M104.064 103.292C103.994 104.193 103.919 105.099 103.838 106.011C102.404 122.323 99.3991 139.875 99.4986 149.059C99.5817 156.821 108.339 180 100.575 180H59.004C57.3524 180 56.448 178.951 56.0502 177.226C64.5245 177.668 85.2451 178.44 89.2887 175.672C93.6605 172.68 92.9125 164.437 91.5948 156.315C90.6693 150.606 89.4641 144.959 89.5576 141.236C89.7705 132.917 92.1084 119.804 93.7142 106.905C93.83 105.982 93.9402 105.062 94.0453 104.142C94.7638 97.9593 95.2616 91.9092 95.221 86.5526C95.2158 85.5436 95.1888 84.5612 95.1402 83.6067C94.9815 80.3863 94.5832 77.489 93.8623 75.054C92.3101 69.808 81.8715 57.9139 81.8715 57.9139C81.8715 57.9139 84.0347 48.6598 83.6388 37.6589C83.502 33.8469 83.1308 28.6383 82.6736 23.1337C81.9793 14.8344 81.0837 5.8623 80.4757 0H86.3162C86.3162 0 85.8562 16.957 86.3162 22.6013C86.3297 22.776 86.3484 22.9534 86.3671 23.1337C86.9671 28.7676 89.9615 36.7549 89.948 42.2512C89.9372 46.9568 87.4326 55.4045 89.2755 59.733C91.471 64.8903 99.4635 69.2216 101.92 74.2607C103.026 76.5254 103.73 79.4557 104.137 82.8587C104.25 83.8029 104.339 84.7876 104.406 85.8018C104.755 90.9833 104.548 97.0016 104.064 103.292Z" fill="#020202" fill-opacity="0.321569"/>
<path d="M65.1638 131.503C65.1638 131.503 57.0058 89.8478 62.9238 77.7444C65.4149 72.65 72.9096 64.2768 78.5272 65.0502C85.1968 65.9673 76.3401 83.1146 72.6089 93.0793C67.7663 106.011 65.1638 131.503 65.1638 131.503Z" fill="white" fill-opacity="0.478431"/>
<path d="M78.2583 42.9049C78.2583 46.9911 77.1295 50.3034 75.7365 50.3034C74.3436 50.3034 73.2144 46.9911 73.2144 42.9049C73.2144 38.8191 74.3436 35.5068 75.7365 35.5068C77.1295 35.5068 78.2583 38.8191 78.2583 42.9049Z" fill="white" fill-opacity="0.478431"/>
<path d="M79.7897 0V23.1337H73.2144C73.2331 22.9534 73.2514 22.776 73.2653 22.6013C73.7225 16.957 73.2653 0 73.2653 0H79.7897Z" fill="white" fill-opacity="0.478431"/>
</svg>
