<svg width="50" height="50" viewBox="0 0 50 50" fill="none" xmlns="http://www.w3.org/2000/svg">
<mask id="mask0_308_3245" style="mask-type:alpha" maskUnits="userSpaceOnUse" x="0" y="0" width="50" height="50">
<rect width="50" height="50" rx="25" fill="white"/>
</mask>
<g mask="url(#mask0_308_3245)">
<rect width="50" height="50" rx="25" fill="white"/>
<path d="M32.4556 38.929V62.4962C32.4556 63.1662 32.204 63.7738 31.7948 64.2228C31.3592 64.7015 30.744 64.9998 30.0627 64.9998H19.3936C19.3792 64.9998 19.3649 64.9998 19.3509 64.9989C18.6907 64.9872 18.0958 64.6963 17.6694 64.2323C17.2551 63.7821 17.0002 63.1704 17.0002 62.4962V38.929C17.0002 38.914 17.0002 38.8992 17.0011 38.8845C17.0348 35.647 18.6929 29.7097 20.2868 26.5204C20.3854 26.3239 20.4827 26.137 20.5804 25.9629C22.084 23.2713 22.3176 16.0346 22.3299 12.1762C22.3358 10.6642 22.3063 9.67041 22.3063 9.67041H27.1495C27.1495 9.67041 27.1202 10.6642 27.1264 12.1762C27.1385 16.0357 27.3721 23.2713 28.8757 25.9629C28.9732 26.137 29.0705 26.3228 29.1682 26.5193C29.757 27.6967 30.354 29.2479 30.875 30.9C31.7653 33.7243 32.4336 36.8416 32.4547 38.8845C32.4547 38.8992 32.4556 38.914 32.4556 38.929Z" fill="#0A0303"/>
<path d="M29.1679 26.5198C28.3049 27.8702 27.1526 28.5983 26.2386 28.9873C25.3787 29.3538 24.7278 29.4187 24.7278 29.4187C24.7278 29.4187 21.964 29.1405 20.2867 26.5209C20.3851 26.3239 20.4826 26.137 20.5802 25.9633C20.9905 25.2284 21.3061 24.1562 21.5489 22.9053C22.5053 23.7237 23.5865 24.1844 24.732 24.1844C25.8741 24.1844 26.9536 23.7256 27.9078 22.9112C28.1506 24.159 28.4653 25.2295 28.8756 25.9633C28.9729 26.137 29.0704 26.3228 29.1679 26.5198Z" fill="#E5B800"/>
<path d="M27.9078 22.9112C26.9536 23.7257 25.8742 24.1844 24.732 24.1844C23.5866 24.1844 22.5053 23.7237 21.549 22.9053C22.1945 19.5739 22.3205 14.9814 22.3297 12.176C22.0402 11.8846 21.8606 11.4743 21.8606 11.0206V6.50321C21.8606 6.42199 21.8666 6.34297 21.8769 6.26571C22.0006 5.98748 22.1265 5.72357 22.2544 5.47572C22.5368 5.17614 22.9449 5.00049 23.3999 5.00049H26.0549C26.5099 5.00049 26.9191 5.17614 27.2013 5.47572C27.3292 5.72357 27.4551 5.98748 27.579 6.26571C27.5891 6.34297 27.5951 6.42199 27.5951 6.50321V11.0206C27.5951 11.4743 27.4155 11.8846 27.1262 12.176C27.1352 14.9845 27.2611 19.58 27.9078 22.9112Z" fill="#FBD772"/>
<path d="M30.4413 61.6962H17V45.3452H30.4107C30.2857 51.9269 30.2747 58.2453 30.4413 61.6962Z" fill="#E5B800"/>
<path d="M30.8749 30.9003C30.6709 35.0846 30.5074 40.2923 30.4109 45.3453H28.0777C27.9881 41.453 27.8237 37.8301 27.5952 35.5773C27.4258 33.905 26.8286 31.4395 26.2389 28.987C27.1528 28.5983 28.3051 27.8702 29.1682 26.5195C29.757 27.6969 30.3539 29.2481 30.8749 30.9003Z" fill="#4C1D1D"/>
<path d="M26.2389 28.9872C25.6661 26.6111 25.0995 24.2453 24.9362 22.6242C24.6043 19.3508 24.9362 9.45843 24.9362 9.45843L27.5952 9.30127V11.0204C27.5952 11.4747 27.4156 11.8845 27.1264 12.1766C27.1385 16.0361 27.372 23.2717 28.8756 25.9633C28.9731 26.1374 29.0704 26.3232 29.1681 26.5198C28.3051 27.8704 27.1528 28.5985 26.2389 28.9872Z" fill="#CEAA4E"/>
<path d="M30.4107 45.3452H28.0775C28.2195 51.6374 28.1658 58.636 27.8662 61.6962H30.4413H32.4556V45.3452H30.4107Z" fill="#B59202"/>
<path d="M27.5952 6.50338V11.0201C27.5952 11.4745 27.4156 11.8843 27.1264 12.1764C26.8491 12.4577 26.4713 12.6296 26.0551 12.6296H23.3999C22.9836 12.6296 22.6068 12.4577 22.3299 12.1764C22.0404 11.8843 21.8606 11.4745 21.8606 11.0201V6.50338C21.8606 6.42172 21.8668 6.34314 21.8769 6.26544C21.9238 5.95354 22.0587 5.68478 22.2546 5.47567C22.5368 5.17609 22.9449 5 23.3999 5H26.0551C26.5039 5 26.908 5.17103 27.1891 5.4629C27.1933 5.4673 27.1973 5.47149 27.2012 5.47567C27.3974 5.68478 27.5325 5.95354 27.579 6.26544C27.5891 6.34314 27.5952 6.42172 27.5952 6.50338Z" fill="#CEAA4E"/>
<path d="M27.1891 5.4629V9.5337C27.1891 9.98802 27.0095 10.3979 26.7203 10.6897C26.4429 10.9713 26.0652 11.1434 25.649 11.1434H22.9937C22.5775 11.1434 22.2007 10.9713 21.9238 10.6897C21.9022 10.6677 21.8811 10.6453 21.8606 10.622V6.50338C21.8606 6.42172 21.8668 6.34314 21.8769 6.26544C21.9238 5.95354 22.0587 5.68478 22.2546 5.47567C22.5368 5.17609 22.9449 5 23.3999 5H26.0551C26.5039 5 26.908 5.17103 27.1891 5.4629Z" fill="#FBD772"/>
<path d="M24.1188 24.9596C23.9625 28.4951 22.3125 35.4369 22.1948 38.9748C21.9978 44.8578 21.9865 59.1763 21.9899 64.5774C21.9885 64.7249 21.9899 64.866 21.9899 64.9998H19.2919C19.2776 64.9998 19.2633 64.9998 19.2492 64.999C19.2503 64.8185 19.2503 64.6252 19.2492 64.4203C19.2472 58.2982 19.2331 41.6884 19.1488 38.7624C19.0674 35.9328 22.3511 28.4793 22.9055 24.9596C23.3147 22.3605 23.8194 15.6162 23.8194 15.6162C23.8194 15.6162 24.2357 22.3317 24.1188 24.9596Z" fill="#E5CFCF" fill-opacity="0.411765"/>
</g>
</svg>
