<svg width="160" height="169" viewBox="0 0 160 169" fill="none" xmlns="http://www.w3.org/2000/svg">
<mask id="mask0_354_4018" style="mask-type:alpha" maskUnits="userSpaceOnUse" x="0" y="0" width="160" height="169">
<path d="M160 0H0V105.424H0.0061218C0.541698 140.61 36.151 169 80 169C123.849 169 159.458 140.61 159.994 105.424H160V0Z" fill="#D9D9D9"/>
</mask>
<g mask="url(#mask0_354_4018)">
<circle cx="80" cy="89" r="80" fill="#FFEDF0"/>
<path d="M103.367 100.787V171.489C103.367 173.499 102.612 175.322 101.384 176.669C100.078 178.105 98.2319 179 96.1881 179H64.1805C64.1376 179 64.0947 179 64.0524 178.997C62.0721 178.962 60.2871 178.089 59.0081 176.697C57.7653 175.347 57.0006 173.512 57.0006 171.489V100.787C57.0006 100.743 57.0006 100.698 57.0033 100.654C57.1043 90.9417 62.0787 73.1296 66.8602 63.5619C67.156 62.9722 67.4479 62.4115 67.7411 61.8892C72.2519 53.8145 72.9526 32.1044 72.9895 20.5292C73.0074 15.9933 72.9189 13.0118 72.9189 13.0118H87.4484C87.4484 13.0118 87.3606 15.9933 87.3791 20.5292C87.4154 32.1077 88.116 53.8145 92.6269 61.8892C92.9194 62.4115 93.2113 62.9689 93.5045 63.5586C95.2709 67.0908 97.0617 71.7442 98.6248 76.7007C101.296 85.1736 103.301 94.5254 103.364 100.654C103.364 100.698 103.367 100.743 103.367 100.787Z" fill="#0A0303"/>
<path d="M93.5039 63.5592C90.9147 67.6104 87.4578 69.7948 84.7161 70.9617C82.1361 72.0611 80.1835 72.2559 80.1835 72.2559C80.1835 72.2559 71.8922 71.4213 66.8604 63.5625C67.1555 62.9715 67.4481 62.4109 67.7406 61.8899C68.9715 59.685 69.9184 56.4684 70.6468 52.7157C73.516 55.1709 76.7596 56.553 80.196 56.553C83.6225 56.553 86.8609 55.1768 89.7235 52.7335C90.4518 56.477 91.3961 59.6883 92.627 61.8899C92.9189 62.4109 93.2114 62.9682 93.5039 63.5592Z" fill="#E5B800"/>
<path d="M89.7233 52.7336C86.8607 55.1768 83.6224 56.553 80.1958 56.553C76.7594 56.553 73.5158 55.1709 70.6466 52.7157C72.5834 42.7214 72.9611 28.944 72.9888 20.5279C72.1205 19.6536 71.5817 18.4227 71.5817 17.0618V3.50951C71.5817 3.26585 71.5995 3.02878 71.6305 2.797C72.0016 1.96233 72.3794 1.17057 72.763 0.427027C73.6102 -0.471702 74.8345 -0.998657 76.1994 -0.998657H84.1645C85.5294 -0.998657 86.757 -0.471702 87.6036 0.427027C87.9873 1.17057 88.365 1.96233 88.7367 2.797C88.7671 3.02878 88.7849 3.26585 88.7849 3.50951V17.0618C88.7849 18.4227 88.2461 19.6536 87.3784 20.5279C87.4055 28.9532 87.7832 42.7399 89.7233 52.7336Z" fill="#FBD772"/>
<path d="M97.3239 169.089H57V120.036H97.2321C96.8571 139.781 96.8241 158.736 97.3239 169.089Z" fill="#E5B800"/>
<path d="M98.6249 76.7008C98.0127 89.2539 97.5221 104.877 97.2328 120.036H90.2332C89.9644 108.359 89.4712 97.4904 88.7857 90.7318C88.2773 85.7151 86.4857 78.3186 84.7167 70.9611C87.4584 69.7949 90.9153 67.6105 93.5045 63.5586C95.271 67.0908 97.0618 71.7442 98.6249 76.7008Z" fill="#4C1D1D"/>
<path d="M84.7166 70.961C82.9984 63.8326 81.2986 56.7352 80.8087 51.8718C79.8129 42.0518 80.8087 12.3746 80.8087 12.3746L88.7856 11.9031V17.0604C88.7856 18.4234 88.2468 19.6529 87.3791 20.5292C87.4154 32.1077 88.116 53.8145 92.6269 61.8892C92.9194 62.4116 93.2113 62.9689 93.5044 63.5586C90.9152 67.6105 87.4583 69.7949 84.7166 70.961Z" fill="#CEAA4E"/>
<path d="M97.2321 120.036H90.2324C90.6584 138.912 90.4972 159.908 89.5985 169.089H97.3239H103.367V120.036H97.2321Z" fill="#B59202"/>
<path d="M88.7857 3.51015V17.0604C88.7857 18.4234 88.2469 19.6529 87.3792 20.5292C86.5472 21.3731 85.414 21.8889 84.1653 21.8889H76.1996C74.9509 21.8889 73.8204 21.3731 72.9896 20.5292C72.1213 19.6529 71.5818 18.4234 71.5818 17.0604V3.51015C71.5818 3.26516 71.6003 3.02942 71.6307 2.79632C71.7713 1.86061 72.1761 1.05433 72.7638 0.427004C73.6104 -0.471724 74.8346 -1 76.1996 -1H84.1653C85.5118 -1 86.7241 -0.486912 87.5674 0.388704C87.58 0.401911 87.5918 0.414458 87.6037 0.427004C88.1921 1.05433 88.5975 1.86061 88.7369 2.79632C88.7673 3.02942 88.7857 3.26516 88.7857 3.51015Z" fill="#CEAA4E"/>
<path d="M87.5674 0.388704V12.6011C87.5674 13.9641 87.0286 15.1936 86.1609 16.0692C85.3288 16.9138 84.1957 17.4302 82.947 17.4302H74.9812C73.7325 17.4302 72.602 16.9138 71.7713 16.0692C71.7066 16.0032 71.6432 15.9359 71.5818 15.8659V3.51015C71.5818 3.26516 71.6003 3.02942 71.6307 2.79632C71.7713 1.86061 72.1761 1.05433 72.7638 0.427004C73.6104 -0.471724 74.8346 -1 76.1996 -1H84.1653C85.5118 -1 86.7241 -0.486912 87.5674 0.388704Z" fill="#FBD772"/>
<path d="M78.3562 58.8794C77.8873 69.4858 72.9374 90.3111 72.5841 100.925C71.9931 118.574 71.9594 161.529 71.9693 177.733C71.9653 178.175 71.9693 178.598 71.9693 179H63.8755C63.8325 179 63.7896 179 63.7474 178.997C63.7507 178.456 63.7507 177.876 63.7474 177.261C63.7414 158.895 63.6992 109.066 63.4462 100.288C63.2019 91.7989 73.0529 69.4383 74.7163 58.8794C75.9439 51.082 77.4581 30.8491 77.4581 30.8491C77.4581 30.8491 78.7068 50.9955 78.3562 58.8794Z" fill="#E5CFCF" fill-opacity="0.411765"/>
</g>
</svg>
