<svg width="160" height="180" viewBox="0 0 160 180" fill="none" xmlns="http://www.w3.org/2000/svg">
<circle cx="80" cy="90" r="80" fill="#FFEDF0"/>
<path d="M103.367 101.787V172.489C103.367 174.499 102.612 176.322 101.384 177.669C100.078 179.105 98.2319 180 96.1881 180H64.1805C64.1376 180 64.0947 180 64.0524 179.997C62.0721 179.962 60.2871 179.089 59.0081 177.697C57.7653 176.347 57.0006 174.512 57.0006 172.489V101.787C57.0006 101.743 57.0006 101.698 57.0033 101.654C57.1043 91.9417 62.0787 74.1296 66.8602 64.5619C67.156 63.9722 67.4479 63.4115 67.7411 62.8892C72.2519 54.8145 72.9526 33.1044 72.9895 21.5292C73.0074 16.9933 72.9189 14.0118 72.9189 14.0118H87.4484C87.4484 14.0118 87.3606 16.9933 87.3791 21.5292C87.4154 33.1077 88.116 54.8145 92.6269 62.8892C92.9194 63.4115 93.2113 63.9689 93.5045 64.5586C95.2709 68.0908 97.0617 72.7442 98.6248 77.7007C101.296 86.1736 103.301 95.5254 103.364 101.654C103.364 101.698 103.367 101.743 103.367 101.787Z" fill="#0A0303"/>
<path d="M93.5039 64.5592C90.9147 68.6104 87.4578 70.7948 84.7161 71.9617C82.1361 73.0611 80.1835 73.2559 80.1835 73.2559C80.1835 73.2559 71.8922 72.4213 66.8604 64.5625C67.1555 63.9715 67.4481 63.4109 67.7406 62.8899C68.9715 60.685 69.9184 57.4684 70.6468 53.7157C73.516 56.1709 76.7596 57.553 80.196 57.553C83.6225 57.553 86.8609 56.1768 89.7235 53.7335C90.4518 57.477 91.3961 60.6883 92.627 62.8899C92.9189 63.4109 93.2114 63.9682 93.5039 64.5592Z" fill="#E5B800"/>
<path d="M89.7233 53.7336C86.8607 56.1768 83.6224 57.553 80.1958 57.553C76.7594 57.553 73.5158 56.1709 70.6466 53.7157C72.5834 43.7214 72.9611 29.944 72.9888 21.5279C72.1205 20.6536 71.5817 19.4227 71.5817 18.0618V4.50951C71.5817 4.26585 71.5995 4.02878 71.6305 3.797C72.0016 2.96233 72.3794 2.17057 72.763 1.42703C73.6102 0.528298 74.8345 0.00134277 76.1994 0.00134277H84.1645C85.5294 0.00134277 86.757 0.528298 87.6036 1.42703C87.9873 2.17057 88.365 2.96233 88.7367 3.797C88.7671 4.02878 88.7849 4.26585 88.7849 4.50951V18.0618C88.7849 19.4227 88.2461 20.6536 87.3784 21.5279C87.4055 29.9532 87.7832 43.7399 89.7233 53.7336Z" fill="#FBD772"/>
<path d="M97.3239 170.089H57V121.036H97.2321C96.8571 140.781 96.8241 159.736 97.3239 170.089Z" fill="#E5B800"/>
<path d="M101.384 177.669C100.078 179.105 98.2319 180 96.1881 180H64.1805C64.1376 180 64.0947 180 64.0524 179.997C62.0721 179.962 60.2871 179.089 59.0081 177.697C60.2568 177.86 62.0113 178.07 64.0524 178.261C66.5043 178.487 69.3702 178.685 72.2737 178.733C79.4801 178.847 86.9155 178.054 88.7856 174.547C89.1059 173.948 89.3766 172.391 89.5992 170.088H97.3239C97.3912 171.537 97.4698 172.821 97.5616 173.91C97.7108 175.685 99.1484 176.885 101.384 177.669Z" fill="#4C1D1D"/>
<path d="M98.6249 77.7008C98.0127 90.2539 97.5221 105.877 97.2328 121.036H90.2332C89.9644 109.359 89.4712 98.4904 88.7857 91.7318C88.2773 86.7151 86.4857 79.3186 84.7167 71.9611C87.4584 70.7949 90.9153 68.6105 93.5045 64.5586C95.271 68.0908 97.0618 72.7442 98.6249 77.7008Z" fill="#4C1D1D"/>
<path d="M84.7166 71.961C82.9984 64.8326 81.2986 57.7352 80.8087 52.8718C79.8129 43.0518 80.8087 13.3746 80.8087 13.3746L88.7856 12.9031V18.0604C88.7856 19.4234 88.2468 20.6529 87.3791 21.5292C87.4154 33.1077 88.116 54.8145 92.6269 62.8892C92.9194 63.4116 93.2113 63.9689 93.5044 64.5586C90.9152 68.6105 87.4583 70.7949 84.7166 71.961Z" fill="#CEAA4E"/>
<path d="M97.2321 121.036H90.2324C90.6584 139.912 90.4972 160.908 89.5985 170.089H97.3239H103.367V121.036H97.2321Z" fill="#B59202"/>
<path d="M88.7857 4.51015V18.0604C88.7857 19.4234 88.2469 20.6529 87.3792 21.5292C86.5472 22.3731 85.414 22.8889 84.1653 22.8889H76.1996C74.9509 22.8889 73.8204 22.3731 72.9896 21.5292C72.1213 20.6529 71.5818 19.4234 71.5818 18.0604V4.51015C71.5818 4.26516 71.6003 4.02942 71.6307 3.79632C71.7713 2.86061 72.1761 2.05433 72.7638 1.427C73.6104 0.528276 74.8346 0 76.1996 0H84.1653C85.5118 0 86.7241 0.513088 87.5674 1.3887C87.58 1.40191 87.5918 1.41446 87.6037 1.427C88.1921 2.05433 88.5975 2.86061 88.7369 3.79632C88.7673 4.02942 88.7857 4.26516 88.7857 4.51015Z" fill="#CEAA4E"/>
<path d="M87.5674 1.3887V13.6011C87.5674 14.9641 87.0286 16.1936 86.1609 17.0692C85.3288 17.9138 84.1957 18.4302 82.947 18.4302H74.9812C73.7325 18.4302 72.602 17.9138 71.7713 17.0692C71.7066 17.0032 71.6432 16.9359 71.5818 16.8659V4.51015C71.5818 4.26516 71.6003 4.02942 71.6307 3.79632C71.7713 2.86061 72.1761 2.05433 72.7638 1.427C73.6104 0.528276 74.8346 0 76.1996 0H84.1653C85.5118 0 86.7241 0.513088 87.5674 1.3887Z" fill="#FBD772"/>
<path d="M78.3562 59.8794C77.8873 70.4858 72.9374 91.3111 72.5841 101.925C71.9931 119.574 71.9594 162.529 71.9693 178.733C71.9653 179.175 71.9693 179.598 71.9693 180H63.8755C63.8325 180 63.7896 180 63.7474 179.997C63.7507 179.456 63.7507 178.876 63.7474 178.261C63.7414 159.895 63.6992 110.066 63.4462 101.288C63.2019 92.7989 73.0529 70.4383 74.7163 59.8794C75.9439 52.082 77.4581 31.8491 77.4581 31.8491C77.4581 31.8491 78.7068 51.9955 78.3562 59.8794Z" fill="#E5CFCF" fill-opacity="0.411765"/>
</svg>
