<svg width="50" height="50" viewBox="0 0 50 50" fill="none" xmlns="http://www.w3.org/2000/svg">
<mask id="mask0_308_3177" style="mask-type:alpha" maskUnits="userSpaceOnUse" x="0" y="0" width="50" height="50">
<rect width="50" height="50" rx="25" fill="white"/>
</mask>
<g mask="url(#mask0_308_3177)">
<rect width="50" height="50" rx="25" fill="white"/>
<path d="M17 25.4285C17 23.0303 20.378 18.8164 24.5457 18.8164C25.0678 18.8164 25.5779 18.8825 26.0704 19.0029C26.0713 19.0029 26.0713 19.0029 26.0723 19.0039C29.5076 19.8457 32.0913 23.3313 32.0913 25.4285C32.0913 25.5154 32.0913 63.2681 32.0913 63.2681C32.0913 64.2244 31.3156 65.0001 30.3594 65.0001H18.7319C18.2118 65.0001 17.746 64.7711 17.4292 64.408C17.1608 64.104 17 63.7052 17 63.2681C17 63.2681 17 25.5154 17 25.4285V25.4285Z" fill="#4C1D1D"/>
<path d="M17 25.4285C17 23.0303 20.378 18.8164 24.5457 18.8164C25.0678 18.8164 25.5779 18.8825 26.0704 19.0029C26.0713 19.0029 26.0713 19.0029 26.0723 19.0039C28.6906 20.3351 30.5123 23.0747 30.5123 24.8364C30.5123 24.9232 30.5123 62.676 30.5123 62.676C30.5123 63.6322 29.7366 64.408 28.7803 64.408H17.4292C17.1608 64.104 17 63.7052 17 63.2681C17 63.2681 17 25.5154 17 25.4285V25.4285Z" fill="#0A0303"/>
<path d="M26.8847 6.67773V24.2934H22.2068V6.67773H26.8847Z" fill="#0A0303"/>
<path d="M25.7993 8.38398C25.7993 10.4012 25.5447 12.2852 25.1045 13.882C24.7294 15.2398 24.2203 16.3906 23.6173 17.2372C23.189 17.8402 22.7142 18.2902 22.207 18.5518V6.67773H25.7371C25.7786 7.2324 25.7993 7.80276 25.7993 8.38398Z" fill="#4C1D1D"/>
<path d="M26.8847 5V8.6515H22.2068V5H26.8847Z" fill="#0A0303"/>
<path d="M26.8254 5C26.4681 6.57004 24.5418 7.77417 22.2068 7.79477V5H26.8254Z" fill="#4C1D1D"/>
<path d="M23.3853 36.0088V60.3843C23.3853 61.7927 22.2938 62.9344 20.9467 62.9344C20.6703 62.9344 20.4039 62.8872 20.1571 62.7974C19.8009 62.671 19.4833 62.4599 19.2226 62.1876C18.7805 61.7255 18.5081 61.0881 18.5081 60.3843V36.0088C18.5081 36.6997 18.7707 37.3274 19.1989 37.7862C19.2068 37.795 19.2147 37.8039 19.2226 37.8118C19.6637 38.2737 20.2727 38.5589 20.9467 38.5589C21.2496 38.5589 21.5387 38.5015 21.8063 38.395C22.729 38.0329 23.3853 37.1003 23.3853 36.0088Z" fill="#532C3D" fill-opacity="0.611765"/>
<path d="M21.806 25.5596V60.3841C21.806 61.5032 21.1161 62.4547 20.1567 62.7972C19.8006 62.6709 19.4829 62.4597 19.2222 62.1874C18.7802 61.7253 18.5077 61.088 18.5077 60.3841V25.074C18.5077 24.3478 18.7979 23.6924 19.2647 23.2285C20.0177 24.107 20.8713 24.8905 21.806 25.5596Z" fill="#532C3D"/>
<path d="M23.3853 26.5395V36.0086C23.3853 37.1001 22.729 38.0328 21.8063 38.3949C21.5387 38.5014 21.2496 38.5587 20.9467 38.5587C20.2727 38.5587 19.6637 38.2735 19.2226 37.8117C19.2147 37.8037 19.2068 37.7948 19.1989 37.7861C18.7707 37.3272 18.5081 36.6995 18.5081 36.0086V25.074C18.5081 24.3478 18.7983 23.6924 19.2651 23.2285C20.0181 24.107 20.8716 24.8905 21.8063 25.5596C22.3096 25.9208 22.8366 26.2484 23.3853 26.5395Z" fill="#532C3D" fill-opacity="0.611765"/>
<path d="M23.3849 33.4429V36.0088C23.3849 37.4172 22.2934 38.5589 20.9463 38.5589C20.2724 38.5589 19.6633 38.2737 19.2222 37.8119C18.7802 37.35 18.5077 36.7124 18.5077 36.0088V33.4429C18.5077 34.1467 18.7802 34.7841 19.2222 35.2461C19.6633 35.7078 20.2724 35.993 20.9463 35.993C22.2934 35.993 23.3849 34.8513 23.3849 33.4429Z" fill="#0A0303"/>
<path d="M29.8927 30.8936V47.0961H23.3853V30.8936H29.8927Z" fill="#BEB3A9"/>
<path d="M23.3852 30.8936V47.0961H19.1987V30.8936H23.3852Z" fill="#EEE5DC"/>
<path d="M26.8847 13.8818V17.2371H23.6172C24.2201 16.3905 24.7293 15.2397 25.1044 13.8818H26.8847Z" fill="#991904"/>
<path d="M25.1045 13.8818C24.7294 15.2397 24.2203 16.3905 23.6173 17.2371H22.207V13.8818H25.1045Z" fill="#F0300A"/>
</g>
</svg>
