<svg width="110" height="125" viewBox="0 0 110 125" fill="none" xmlns="http://www.w3.org/2000/svg">
<circle cx="55" cy="62.375" r="55" fill="#FFEDF0"/>
<path d="M39.1875 42.6334C39.1875 37.6873 46.1546 28.996 54.7505 28.996C55.8272 28.996 56.8794 29.1323 57.8952 29.3806C57.8971 29.3806 57.8971 29.3806 57.8991 29.3826C64.9844 31.1189 70.3133 38.3081 70.3133 42.6334C70.3133 42.8126 70.3133 120.678 70.3133 120.678C70.3133 122.65 68.7135 124.25 66.7412 124.25H42.7596C41.6868 124.25 40.7262 123.778 40.0728 123.029C39.5192 122.402 39.1875 121.579 39.1875 120.678C39.1875 120.678 39.1875 42.8126 39.1875 42.6334V42.6334Z" fill="#4C1D1D"/>
<path d="M39.1875 42.6334C39.1875 37.6873 46.1546 28.996 54.7505 28.996C55.8272 28.996 56.8794 29.1323 57.8952 29.3806C57.8971 29.3806 57.8971 29.3806 57.8991 29.3826C63.2993 32.1283 67.0566 37.7788 67.0566 41.4122C67.0566 41.5913 67.0566 119.456 67.0566 119.456C67.0566 121.429 65.4567 123.029 63.4844 123.029H40.0728C39.5192 122.402 39.1875 121.579 39.1875 120.678C39.1875 120.678 39.1875 42.8126 39.1875 42.6334V42.6334Z" fill="#0A0303"/>
<path d="M59.5744 3.96036V40.2927H49.9263V3.96036H59.5744Z" fill="#0A0303"/>
<path d="M57.3354 7.4795C57.3354 11.64 56.8102 15.5257 55.9024 18.8191C55.1287 21.6196 54.0785 23.9931 52.835 25.7392C51.9515 26.983 50.9723 27.911 49.9263 28.4506V3.96036H57.2069C57.2926 5.10436 57.3354 6.28072 57.3354 7.4795Z" fill="#4C1D1D"/>
<path d="M59.5744 0.5V8.03123H49.9263V0.5H59.5744Z" fill="#0A0303"/>
<path d="M59.4521 0.5C58.7153 3.7382 54.7422 6.22173 49.9263 6.26422V0.5H59.4521Z" fill="#4C1D1D"/>
<path d="M52.3572 64.4553V114.73C52.3572 117.635 50.106 119.989 47.3275 119.989C46.7576 119.989 46.208 119.892 45.6991 119.707C44.9644 119.446 44.3092 119.011 43.7716 118.449C42.8598 117.496 42.2979 116.181 42.2979 114.73V64.4553C42.2979 65.8803 42.8395 67.1748 43.7227 68.1213C43.7391 68.1393 43.7554 68.1576 43.7716 68.1741C44.6814 69.1266 45.9375 69.7148 47.3275 69.7148C47.9523 69.7148 48.5486 69.5965 49.1004 69.3769C51.0035 68.6301 52.3572 66.7065 52.3572 64.4553Z" fill="#532C3D" fill-opacity="0.611765"/>
<path d="M49.1006 42.9043V114.73C49.1006 117.038 47.6776 119 45.699 119.707C44.9644 119.446 44.3092 119.011 43.7715 118.449C42.8598 117.496 42.2979 116.181 42.2979 114.73V41.9026C42.2979 40.4048 42.8965 39.053 43.8592 38.0963C45.4123 39.9082 47.1727 41.5242 49.1006 42.9043Z" fill="#532C3D"/>
<path d="M52.3572 44.9252V64.4553C52.3572 66.7065 51.0035 68.6301 49.1004 69.3769C48.5486 69.5966 47.9523 69.7148 47.3275 69.7148C45.9375 69.7148 44.6814 69.1266 43.7716 68.1741C43.7554 68.1577 43.7391 68.1393 43.7227 68.1213C42.8395 67.1749 42.2979 65.8803 42.2979 64.4553V41.9026C42.2979 40.4048 42.8965 39.053 43.8593 38.0963C45.4123 39.9082 47.1728 41.5242 49.1004 42.9043C50.1385 43.6491 51.2255 44.3248 52.3572 44.9252Z" fill="#532C3D" fill-opacity="0.611765"/>
<path d="M52.3571 59.163V64.4552C52.3571 67.3601 50.1059 69.7148 47.3275 69.7148C45.9375 69.7148 44.6814 69.1266 43.7715 68.174C42.8598 67.2214 42.2979 65.9064 42.2979 64.4552V59.163C42.2979 60.6146 42.8598 61.9292 43.7715 62.8821C44.6814 63.8343 45.9375 64.4226 47.3275 64.4226C50.1059 64.4226 52.3571 62.0678 52.3571 59.163Z" fill="#0A0303"/>
<path d="M65.7786 53.9055V87.3233H52.3569V53.9055H65.7786Z" fill="#BEB3A9"/>
<path d="M52.3569 53.9055V87.3233H43.7224V53.9055H52.3569Z" fill="#EEE5DC"/>
<path d="M59.5748 18.819V25.7391H52.8354C54.079 23.9931 55.1292 21.6195 55.9028 18.819H59.5748Z" fill="#991904"/>
<path d="M55.9024 18.819C55.1287 21.6195 54.0785 23.9931 52.835 25.7391H49.9263V18.819H55.9024Z" fill="#F0300A"/>
</svg>
