<svg width="160" height="169" viewBox="0 0 160 169" fill="none" xmlns="http://www.w3.org/2000/svg">
<mask id="mask0_354_4124" style="mask-type:alpha" maskUnits="userSpaceOnUse" x="0" y="0" width="160" height="169">
<path d="M160 0H0V105.424H0.0061218C0.541698 140.61 36.151 169 80 169C123.849 169 159.458 140.61 159.994 105.424H160V0Z" fill="#D9D9D9"/>
</mask>
<g mask="url(#mask0_354_4124)">
<circle cx="80" cy="89" r="80" fill="#FFEDF0"/>
<path d="M57 60.285C57 53.0906 67.134 40.4488 79.6371 40.4488C81.2033 40.4488 82.7337 40.647 84.2112 41.0082C84.2139 41.0082 84.2139 41.0082 84.2169 41.0111C94.5228 43.5366 102.274 53.9936 102.274 60.285C102.274 60.5457 102.274 173.804 102.274 173.804C102.274 176.673 99.9469 179 97.0781 179H62.1958C60.6353 179 59.2381 178.313 58.2877 177.224C57.4825 176.312 57 175.115 57 173.804C57 173.804 57 60.5457 57 60.285H57Z" fill="#4C1D1D"/>
<path d="M57 60.285C57 53.0906 67.134 40.4488 79.6371 40.4488C81.2033 40.4488 82.7337 40.647 84.2112 41.0082C84.2139 41.0082 84.2139 41.0082 84.2169 41.0111C92.0717 45.0048 97.5368 53.2238 97.5368 58.5086C97.5368 58.7692 97.5368 172.028 97.5368 172.028C97.5368 174.896 95.2097 177.224 92.3409 177.224H58.2877C57.4825 176.312 57 175.115 57 173.804C57 173.804 57 60.5457 57 60.285V60.285Z" fill="#0A0303"/>
<path d="M86.6542 4.0332V56.8803H72.6206V4.0332H86.6542Z" fill="#0A0303"/>
<path d="M83.3977 9.15195C83.3977 15.2036 82.6338 20.8555 81.3133 25.6459C80.188 29.7194 78.6605 33.1718 76.8517 35.7115C75.5666 37.5207 74.1422 38.8706 72.6208 39.6553V4.0332H83.2109C83.3355 5.6972 83.3977 7.40827 83.3977 9.15195Z" fill="#4C1D1D"/>
<path d="M86.6542 -1V9.95451H72.6206V-1H86.6542Z" fill="#0A0303"/>
<path d="M86.4763 -1C85.4046 3.71011 79.6256 7.32251 72.6206 7.38431V-1H86.4763Z" fill="#4C1D1D"/>
<path d="M76.1557 92.0259V165.152C76.1557 169.378 72.8813 172.803 68.8398 172.803C68.0108 172.803 67.2115 172.661 66.4712 172.392C65.4026 172.013 64.4496 171.379 63.6676 170.562C62.3414 169.176 61.524 167.264 61.524 165.152V92.0259C61.524 94.0986 62.3118 95.9816 63.5964 97.3582C63.6203 97.3845 63.644 97.4112 63.6676 97.4351C64.9909 98.8206 66.818 99.6761 68.8398 99.6761C69.7486 99.6761 70.6159 99.5041 71.4186 99.1847C74.1868 98.0983 76.1557 95.3003 76.1557 92.0259Z" fill="#532C3D" fill-opacity="0.611765"/>
<path d="M71.4186 60.6789V165.152C71.4186 168.51 69.3489 171.364 66.4709 172.392C65.4024 172.013 64.4494 171.379 63.6673 170.562C62.3412 169.176 61.5237 167.264 61.5237 165.152V59.2219C61.5237 57.0433 62.3945 55.0771 63.7948 53.6855C66.0538 56.3211 68.6144 58.6716 71.4186 60.6789Z" fill="#532C3D"/>
<path d="M76.1557 63.6185V92.0259C76.1557 95.3003 74.1868 98.0983 71.4186 99.1847C70.6159 99.5041 69.7486 99.6761 68.8398 99.6761C66.818 99.6761 64.9909 98.8206 63.6676 97.4351C63.644 97.4112 63.6203 97.3845 63.5964 97.3582C62.3118 95.9816 61.524 94.0986 61.524 92.0259V59.2219C61.524 57.0433 62.3947 55.0771 63.7952 53.6855C66.0541 56.3211 68.6147 58.6716 71.4186 60.6789C72.9285 61.7623 74.5096 62.7451 76.1557 63.6185Z" fill="#532C3D" fill-opacity="0.611765"/>
<path d="M76.1554 84.3279V92.0258C76.1554 96.251 72.881 99.676 68.8396 99.676C66.8177 99.676 64.9907 98.8205 63.6673 97.4349C62.3412 96.0493 61.5237 94.1366 61.5237 92.0258V84.3279C61.5237 86.4394 62.3412 88.3515 63.6673 89.7376C64.9907 91.1226 66.8177 91.9783 68.8396 91.9783C72.881 91.9783 76.1554 88.5532 76.1554 84.3279Z" fill="#0A0303"/>
<path d="M95.6782 76.6808V125.288H76.1558V76.6808H95.6782Z" fill="#BEB3A9"/>
<path d="M76.1557 76.6808V125.288H63.5964V76.6808H76.1557Z" fill="#EEE5DC"/>
<path d="M86.6543 25.6458V35.7115H76.8516C78.6604 33.1717 80.188 29.7193 81.3133 25.6458H86.6543Z" fill="#991904"/>
<path d="M81.3133 25.6458C80.188 29.7193 78.6605 33.1717 76.8517 35.7115H72.6208V25.6458H81.3133Z" fill="#F0300A"/>
</g>
</svg>
