<svg width="160" height="169" viewBox="0 0 160 169" fill="none" xmlns="http://www.w3.org/2000/svg">
<mask id="mask0_354_4061" style="mask-type:alpha" maskUnits="userSpaceOnUse" x="0" y="0" width="160" height="169">
<path d="M160 0H0V105.424H0.0061218C0.541698 140.61 36.151 169 80 169C123.849 169 159.458 140.61 159.994 105.424H160V0Z" fill="#D9D9D9"/>
</mask>
<g mask="url(#mask0_354_4061)">
<circle cx="80" cy="89" r="80" fill="#FFEDF0"/>
<path d="M111.608 78.0822V174.317C111.608 176.904 109.513 179 106.926 179H52.6807C50.0964 179 48 176.904 48 174.317V78.0822C48 75.8097 49.6208 73.9153 51.7735 73.4906C53.6192 72.5039 58.4228 69.6381 65.1316 63.4331C73.108 56.0526 70.5948 50.3921 70.5948 50.3921C70.5948 50.3921 69.4544 46.276 69.2836 38.1564C69.2677 37.4889 69.2603 36.7938 69.2603 36.0727C69.2603 28.1859 72.1287 22.0116 72.1287 22.0116V-1H87.6039V22.0116C87.6039 22.0116 90.475 28.1859 90.475 36.0727C90.475 36.7938 90.4671 37.4889 90.4517 38.1564C90.2804 46.276 89.1384 50.3921 89.1384 50.3921C89.1384 50.3921 86.6246 56.0526 94.6016 63.4331C101.437 69.7558 106.297 72.6136 108.064 73.5468C109.072 73.7976 109.951 74.3755 110.579 75.1602C111.224 75.9603 111.608 76.9757 111.608 78.0822Z" fill="#E84207"/>
<path d="M111.608 78.0822V174.317C111.608 176.904 109.513 179 106.926 179H99.8496C97.4568 177.106 94.0131 175.153 89.071 173.599C83.9296 171.977 70.15 172.959 67.9358 168.043C62.6772 156.364 79.8671 146.951 93.6117 123.715C104.538 105.238 108.867 86.7161 110.579 75.1602C111.224 75.9603 111.608 76.9757 111.608 78.0822Z" fill="#A52600"/>
<path d="M106.41 96.6713V159.567H53.1976V96.6713H106.41Z" fill="#0F0B09"/>
<path d="M90.475 36.0727C90.475 36.7938 90.467 37.4889 90.4516 38.1564H69.2836C69.2677 37.4889 69.2603 36.7938 69.2603 36.0727C69.2603 28.1859 72.1287 22.0116 72.1287 22.0116V-1H87.6039V22.0116C87.6039 22.0116 90.475 28.1859 90.475 36.0727Z" fill="#0F0B09"/>
<path d="M74.739 -1V22.8175C74.739 22.8175 73.309 24.696 72.4304 28.7924C71.5005 33.1285 72.1828 36.6225 72.1828 36.6225C72.1828 36.6225 72.3536 33.6422 74.9039 28.6413C76.6143 25.2883 79.8677 22.8175 79.8677 22.8175V-1H74.739Z" fill="#FFEDCC" fill-opacity="0.521569"/>
<path d="M102.902 112.679L98.6429 124.515C93.6244 118.351 87.0276 114.614 79.8035 114.614C72.5799 114.614 65.9831 118.351 60.9625 124.513L56.705 112.679C63.0897 105.804 71.1022 101.713 79.8035 101.713C88.5047 101.713 96.5178 105.804 102.902 112.679Z" fill="white" fill-opacity="0.819608"/>
<path d="M100.698 80.2788C100.317 87.6821 88.2837 88.4032 79.2971 96.6713C76.7993 98.9697 74.5348 101.851 72.8238 105.622C68.0795 116.073 65.7858 143.316 62.6672 159.567C61.1025 167.726 59.3279 173.115 56.9324 172.223C55.2246 171.589 54.0131 166.742 53.2151 159.567C53.2104 159.51 53.2024 159.453 53.1976 159.394V96.9475C53.2051 96.8553 53.2125 96.763 53.2178 96.6713C53.9542 87.7537 54.9611 81.2937 56.1376 79.9209C61.8209 73.2705 101.038 73.6369 100.698 80.2788Z" fill="#FFEDCC" fill-opacity="0.341176"/>
</g>
</svg>
