<svg width="160" height="180" viewBox="0 0 160 180" fill="none" xmlns="http://www.w3.org/2000/svg">
<circle cx="80" cy="90" r="80" fill="#FFEDF0"/>
<path d="M111.608 79.0822V175.317C111.608 177.904 109.513 180 106.926 180H52.6807C50.0964 180 48 177.904 48 175.317V79.0822C48 76.8097 49.6208 74.9153 51.7735 74.4906C53.6192 73.5039 58.4228 70.6381 65.1316 64.4331C73.108 57.0526 70.5948 51.3921 70.5948 51.3921C70.5948 51.3921 69.4544 47.276 69.2836 39.1564C69.2677 38.4889 69.2603 37.7938 69.2603 37.0727C69.2603 29.1859 72.1287 23.0116 72.1287 23.0116V0H87.6039V23.0116C87.6039 23.0116 90.475 29.1859 90.475 37.0727C90.475 37.7938 90.4671 38.4889 90.4517 39.1564C90.2804 47.276 89.1384 51.3921 89.1384 51.3921C89.1384 51.3921 86.6246 57.0526 94.6016 64.4331C101.437 70.7558 106.297 73.6136 108.064 74.5468C109.072 74.7976 109.951 75.3755 110.579 76.1602C111.224 76.9603 111.608 77.9757 111.608 79.0822Z" fill="#E84207"/>
<path d="M111.608 79.0822V175.317C111.608 177.904 109.513 180 106.926 180H99.8496C97.4568 178.106 94.0131 176.153 89.071 174.599C83.9296 172.977 70.15 173.959 67.9358 169.043C62.6772 157.364 79.8671 147.951 93.6117 124.715C104.538 106.238 108.867 87.7161 110.579 76.1602C111.224 76.9603 111.608 77.9757 111.608 79.0822Z" fill="#A52600"/>
<path d="M106.41 97.6713V160.567H53.1976V97.6713H106.41Z" fill="#0F0B09"/>
<path d="M90.475 37.0727C90.475 37.7938 90.467 38.4889 90.4516 39.1564H69.2836C69.2677 38.4889 69.2603 37.7938 69.2603 37.0727C69.2603 29.1859 72.1287 23.0116 72.1287 23.0116V0H87.6039V23.0116C87.6039 23.0116 90.475 29.1859 90.475 37.0727Z" fill="#0F0B09"/>
<path d="M74.739 0V23.8175C74.739 23.8175 73.309 25.696 72.4304 29.7924C71.5005 34.1285 72.1828 37.6225 72.1828 37.6225C72.1828 37.6225 72.3536 34.6422 74.9039 29.6413C76.6143 26.2883 79.8677 23.8175 79.8677 23.8175V0H74.739Z" fill="#FFEDCC" fill-opacity="0.521569"/>
<path d="M102.902 113.679L98.6429 125.515C93.6244 119.351 87.0276 115.614 79.8035 115.614C72.5799 115.614 65.9831 119.351 60.9625 125.513L56.705 113.679C63.0897 106.804 71.1022 102.713 79.8035 102.713C88.5047 102.713 96.5178 106.804 102.902 113.679Z" fill="white" fill-opacity="0.819608"/>
<path d="M100.698 81.2788C100.317 88.6821 88.2837 89.4032 79.2971 97.6713C76.7993 99.9697 74.5348 102.851 72.8238 106.622C68.0795 117.073 65.7858 144.316 62.6672 160.567C61.1025 168.726 59.3279 174.115 56.9324 173.223C55.2246 172.589 54.0131 167.742 53.2151 160.567C53.2104 160.51 53.2024 160.453 53.1976 160.394V97.9475C53.2051 97.8553 53.2125 97.763 53.2178 97.6713C53.9542 88.7537 54.9611 82.2937 56.1376 80.9209C61.8209 74.2705 101.038 74.6369 100.698 81.2788Z" fill="#FFEDCC" fill-opacity="0.341176"/>
</svg>
