<svg width="50" height="50" viewBox="0 0 50 50" fill="none" xmlns="http://www.w3.org/2000/svg">
<mask id="mask0_308_3216" style="mask-type:alpha" maskUnits="userSpaceOnUse" x="0" y="0" width="50" height="50">
<rect width="50" height="50" rx="25" fill="white"/>
</mask>
<g mask="url(#mask0_308_3216)">
<rect width="50" height="50" rx="25" fill="white"/>
<path d="M35.2025 31.3607V63.4389C35.2025 64.3014 34.5044 65 33.6421 65H15.5602C14.6988 65 14 64.3014 14 63.4389V31.3607C14 30.6032 14.5403 29.9718 15.2578 29.8302C15.8731 29.5013 17.4743 28.546 19.7105 26.4777C22.3693 24.0175 21.5316 22.1307 21.5316 22.1307C21.5316 22.1307 21.1515 20.7587 21.0945 18.0521C21.0892 17.8296 21.0868 17.5979 21.0868 17.3576C21.0868 14.7286 22.0429 12.6705 22.0429 12.6705V5H27.2013V12.6705C27.2013 12.6705 28.1583 14.7286 28.1583 17.3576C28.1583 17.5979 28.1557 17.8296 28.1506 18.0521C28.0935 20.7587 27.7128 22.1307 27.7128 22.1307C27.7128 22.1307 26.8749 24.0175 29.5339 26.4777C31.8124 28.5853 33.4325 29.5379 34.0214 29.8489C34.3572 29.9325 34.6502 30.1252 34.8598 30.3867C35.0746 30.6534 35.2025 30.9919 35.2025 31.3607Z" fill="#E84207"/>
<path d="M35.2025 31.3607V63.4389C35.2025 64.3013 34.5044 65 33.6421 65H31.2832C30.4856 64.3685 29.3377 63.7176 27.6904 63.1996C25.9765 62.6591 21.3833 62.9864 20.6453 61.3477C18.8924 57.4548 24.6224 54.317 29.2039 46.5717C32.8461 40.4128 34.289 34.2387 34.8598 30.3867C35.0746 30.6534 35.2025 30.9919 35.2025 31.3607Z" fill="#A52600"/>
<path d="M33.4699 37.5571V58.5225H15.7325V37.5571H33.4699Z" fill="#0F0B09"/>
<path d="M28.1583 17.3576C28.1583 17.5979 28.1556 17.8296 28.1505 18.0521H21.0945C21.0892 17.8296 21.0867 17.5979 21.0867 17.3576C21.0867 14.7286 22.0429 12.6705 22.0429 12.6705V5H27.2013V12.6705C27.2013 12.6705 28.1583 14.7286 28.1583 17.3576Z" fill="#0F0B09"/>
<path d="M22.913 5V12.9392C22.913 12.9392 22.4363 13.5653 22.1435 14.9308C21.8335 16.3762 22.0609 17.5408 22.0609 17.5408C22.0609 17.5408 22.1178 16.5474 22.9679 14.8804C23.5381 13.7628 24.6225 12.9392 24.6225 12.9392V5H22.913Z" fill="#FFEDCC" fill-opacity="0.521569"/>
<path d="M32.3006 42.8932L30.8809 46.8385C29.2081 44.7838 27.0092 43.538 24.6011 43.538C22.1933 43.538 19.9943 44.7838 18.3208 46.8376L16.9016 42.8932C19.0299 40.6013 21.7007 39.2378 24.6011 39.2378C27.5015 39.2378 30.1726 40.6013 32.3006 42.8932Z" fill="white" fill-opacity="0.819608"/>
<path d="M31.5661 32.093C31.439 34.5608 27.4278 34.8012 24.4323 37.5572C23.5997 38.3233 22.8449 39.2837 22.2745 40.5407C20.6931 44.0243 19.9286 53.1054 18.889 58.5225C18.3674 61.242 17.7759 63.0385 16.9774 62.7412C16.4081 62.5298 16.0043 60.9139 15.7383 58.5225C15.7367 58.5032 15.7341 58.4843 15.7325 58.4647V37.6493C15.735 37.6185 15.7374 37.5878 15.7392 37.5572C15.9847 34.5847 16.3203 32.4313 16.7125 31.9737C18.6069 29.7569 31.6794 29.8791 31.5661 32.093Z" fill="#FFEDCC" fill-opacity="0.341176"/>
</g>
</svg>
