<svg width="50" height="50" viewBox="0 0 50 50" fill="none" xmlns="http://www.w3.org/2000/svg">
<mask id="mask0_308_3230" style="mask-type:alpha" maskUnits="userSpaceOnUse" x="0" y="0" width="50" height="50">
<rect width="50" height="50" rx="25" fill="white"/>
</mask>
<g mask="url(#mask0_308_3230)">
<rect width="50" height="50" rx="25" fill="white"/>
<path d="M26.884 20.7876V6.69043H22.3666V20.7843C20.4047 21.3218 18 22.2365 18 22.8739V63.2718C18 64.2264 18.7738 65.0001 19.7284 65.0001H29.5222C30.4769 65.0001 31.2506 64.2264 31.2506 63.2718V22.8739C31.2506 22.2378 28.8494 21.3256 26.884 20.7876Z" fill="#1C5DBB"/>
<path d="M27.1851 9.01489H22.0656V5H27.1851V9.01489Z" fill="#CECECE"/>
<path d="M22.9428 9.01489H22.0656V5H22.9428V9.01489Z" fill="#797A7C"/>
<path d="M25.3183 9.01489H27.1851V5H25.3183V9.01489Z" fill="#797A7C"/>
<path d="M25.82 9.01489H24.8164V5H25.82C25.82 5 25.3183 5.70263 25.3183 7.00749C25.3183 8.21237 25.82 9.01489 25.82 9.01489Z" fill="#35373A"/>
<path d="M22.0656 63.2158C22.0656 63.2158 26.1504 62.7261 26.2515 61.6099C27.1094 52.146 21.6006 23.2677 21.6006 23.2677C21.6006 23.2677 23.4109 23.255 26.6226 23.157C29.0301 23.0835 30.3367 22.8662 30.3367 22.8662C30.3367 22.8662 27.8504 24.8068 26.3219 28.0855C23.9233 33.2309 28.1886 63.2158 28.1886 63.2158H22.0656Z" fill="#0B3568"/>
<path d="M18.9946 61.4093V22.8664C18.9946 22.8664 19.4966 22.2976 20.9358 21.7623C22.3092 21.2514 23.3108 21.0597 23.3108 21.0597V9.4165C23.3108 9.4165 24.472 13.3004 24.6252 14.4352C24.8669 16.2256 24.6252 21.3609 24.6252 21.3609C24.6252 21.3609 23.2773 21.4278 21.6006 22.1638C20.9803 22.4361 20.2996 23.0672 20.2996 23.0672C20.2996 23.0672 20.5718 40.6096 20.3999 46.454C19.9985 60.1045 18.9946 61.4093 18.9946 61.4093Z" fill="#4E90E0"/>
<path d="M31.2506 33.004H18V28.688H31.2506V33.004Z" fill="white" fill-opacity="0.678431"/>
</g>
</svg>
