<svg width="160" height="169" viewBox="0 0 160 169" fill="none" xmlns="http://www.w3.org/2000/svg">
<mask id="mask0_354_4041" style="mask-type:alpha" maskUnits="userSpaceOnUse" x="0" y="0" width="160" height="169">
<path d="M160 0H0V105.424H0.0061218C0.541698 140.61 36.151 169 80 169C123.849 169 159.458 140.61 159.994 105.424H160V0Z" fill="#D9D9D9"/>
</mask>
<g mask="url(#mask0_354_4041)">
<circle cx="80" cy="89" r="80" fill="#FFEDF0"/>
<path d="M86.652 46.3624V4.07098H73.0998V46.3525C67.2141 47.965 60 50.7093 60 52.6214V173.815C60 176.679 62.3214 179 65.1853 179H94.5667C97.4306 179 99.7518 176.679 99.7518 173.815V52.6214C99.7518 50.7132 92.5481 47.9764 86.652 46.3624Z" fill="#1C5DBB"/>
<path d="M87.5551 11.0447H72.1968V-1H87.5551V11.0447Z" fill="#CECECE"/>
<path d="M74.8283 11.0447H72.1968V-1H74.8283V11.0447Z" fill="#797A7C"/>
<path d="M81.9548 11.0447H87.5552V-1H81.9548V11.0447Z" fill="#797A7C"/>
<path d="M83.4599 11.0447H80.4491V-1H83.4599C83.4599 -1 81.9548 1.1079 81.9548 5.02247C81.9548 8.6371 83.4599 11.0447 83.4599 11.0447Z" fill="#35373A"/>
<path d="M72.1969 173.648C72.1969 173.648 84.4514 172.179 84.7548 168.83C87.3284 140.438 70.8019 53.8034 70.8019 53.8034C70.8019 53.8034 76.2328 53.7653 85.8678 53.4713C93.0906 53.2508 97.0104 52.5989 97.0104 52.5989C97.0104 52.5989 89.5514 58.4207 84.9659 68.2569C77.7701 83.6931 90.566 173.648 90.566 173.648H72.1969Z" fill="#0B3568"/>
<path d="M62.984 168.227V52.5989C62.984 52.5989 64.49 50.8925 68.8076 49.2866C72.9278 47.7537 75.9324 47.1787 75.9324 47.1787V12.2491C75.9324 12.2491 79.4163 23.9006 79.8757 27.3051C80.6009 32.6763 79.8757 48.0821 79.8757 48.0821C79.8757 48.0821 75.8322 48.2829 70.8019 50.491C68.941 51.3078 66.8988 53.2011 66.8988 53.2011C66.8988 53.2011 67.7156 105.828 67.1998 123.362C65.9956 164.313 62.984 168.227 62.984 168.227Z" fill="#4E90E0"/>
<path d="M99.7518 83.0117H60V70.0636H99.7518V83.0117Z" fill="white" fill-opacity="0.678431"/>
</g>
</svg>
