<svg width="160" height="180" viewBox="0 0 160 180" fill="none" xmlns="http://www.w3.org/2000/svg">
<circle cx="80" cy="90" r="80" fill="#FFEDF0"/>
<path d="M86.652 47.3624V5.07098H73.0998V47.3525C67.2141 48.965 60 51.7093 60 53.6214V174.815C60 177.679 62.3214 180 65.1853 180H94.5667C97.4306 180 99.7518 177.679 99.7518 174.815V53.6214C99.7518 51.7132 92.5481 48.9764 86.652 47.3624Z" fill="#1C5DBB"/>
<path d="M87.5551 12.0447H72.1968V0H87.5551V12.0447Z" fill="#CECECE"/>
<path d="M74.8283 12.0447H72.1968V0H74.8283V12.0447Z" fill="#797A7C"/>
<path d="M81.9548 12.0447H87.5552V0H81.9548V12.0447Z" fill="#797A7C"/>
<path d="M83.4599 12.0447H80.4491V0H83.4599C83.4599 0 81.9548 2.1079 81.9548 6.02247C81.9548 9.6371 83.4599 12.0447 83.4599 12.0447Z" fill="#35373A"/>
<path d="M72.1969 174.648C72.1969 174.648 84.4514 173.179 84.7548 169.83C87.3284 141.438 70.8019 54.8034 70.8019 54.8034C70.8019 54.8034 76.2328 54.7653 85.8678 54.4713C93.0906 54.2508 97.0104 53.5989 97.0104 53.5989C97.0104 53.5989 89.5514 59.4207 84.9659 69.2569C77.7701 84.6931 90.566 174.648 90.566 174.648H72.1969Z" fill="#0B3568"/>
<path d="M62.984 169.227V53.5989C62.984 53.5989 64.49 51.8925 68.8076 50.2866C72.9278 48.7537 75.9324 48.1787 75.9324 48.1787V13.2491C75.9324 13.2491 79.4163 24.9006 79.8757 28.3051C80.6009 33.6763 79.8757 49.0821 79.8757 49.0821C79.8757 49.0821 75.8322 49.2829 70.8019 51.491C68.941 52.3078 66.8988 54.2011 66.8988 54.2011C66.8988 54.2011 67.7156 106.828 67.1998 124.362C65.9956 165.313 62.984 169.227 62.984 169.227Z" fill="#4E90E0"/>
<path d="M99.7518 84.0117H60V71.0636H99.7518V84.0117Z" fill="white" fill-opacity="0.678431"/>
</svg>
